<svg xmlns="http://www.w3.org/2000/svg" width="298" height="157" fill="none"><path opacity=".2" d="M151.941 38.424c.368-2.052-2.258-3.227-3.543-1.585l-47.867 61.148c-1.028 1.312-.093 3.232 1.575 3.232h19.041a2.001 2.001 0 0 1 1.969 2.353l-8.057 45.004c-.368 2.052 2.258 3.227 3.543 1.585l47.867-61.148c1.028-1.312.093-3.232-1.575-3.232h-19.041a2 2 0 0 1-1.969-2.353l8.057-45.004ZM77.466 23.974c.075-.632.993-.632 1.068 0l.629 5.303a14.922 14.922 0 0 0 13.06 13.06l5.303.63c.632.074.632.992 0 1.067l-5.303.629a14.921 14.921 0 0 0-13.06 13.06l-.63 5.303c-.074.632-.992.632-1.067 0l-.629-5.304a14.922 14.922 0 0 0-13.06-13.059l-5.303-.63c-.632-.074-.632-.992 0-1.067l5.303-.629a14.922 14.922 0 0 0 13.06-13.06l.63-5.303ZM280.546 107.903c.064-.537.844-.537.908 0l.535 4.508a12.68 12.68 0 0 0 11.1 11.1l4.508.535c.537.064.537.844 0 .908l-4.508.535a12.68 12.68 0 0 0-11.1 11.1l-.535 4.508c-.064.537-.844.537-.908 0l-.535-4.508a12.68 12.68 0 0 0-11.1-11.1l-4.508-.535c-.537-.064-.537-.844 0-.908l4.508-.535a12.68 12.68 0 0 0 11.1-11.1l.535-4.508ZM28.226 92.188c.109-.917 1.44-.917 1.548 0l.912 7.69a21.637 21.637 0 0 0 18.937 18.936l7.69.912c.916.109.916 1.439 0 1.548l-7.69.912a21.637 21.637 0 0 0-18.937 18.937l-.912 7.689c-.109.917-1.44.917-1.548 0l-.912-7.689a21.637 21.637 0 0 0-18.937-18.937l-7.69-.912c-.916-.109-.916-1.439 0-1.548l7.69-.912a21.637 21.637 0 0 0 18.937-18.937l.912-7.69ZM222.419 1.46c.152-1.28 2.01-1.28 2.162 0l1.274 10.74c1.645 13.866 12.579 24.8 26.446 26.445l10.739 1.274c1.28.152 1.28 2.01 0 2.162l-10.739 1.274C238.434 45 227.5 55.934 225.855 69.801l-1.274 10.739c-.152 1.28-2.01 1.28-2.162 0l-1.274-10.74C219.5 55.935 208.566 45 194.699 43.356l-10.739-1.274c-1.28-.152-1.28-2.01 0-2.162l10.739-1.274C208.566 37 219.5 26.066 221.145 12.199l1.274-10.739Z" fill="#fff"/></svg>