<svg xmlns="http://www.w3.org/2000/svg" width="298" height="157" fill="none"><path opacity=".2" d="M146.059 38.424c-.368-2.052 2.258-3.227 3.543-1.585l47.867 61.148c1.028 1.312.093 3.232-1.575 3.232h-19.041a2.001 2.001 0 0 0-1.969 2.353l8.057 45.004c.368 2.052-2.258 3.227-3.543 1.585l-47.867-61.148c-1.028-1.312-.093-3.232 1.575-3.232h19.041a2 2 0 0 0 1.969-2.353l-8.057-45.004ZM220.534 23.974c-.075-.632-.993-.632-1.068 0l-.629 5.303a14.922 14.922 0 0 1-13.06 13.06l-5.303.63c-.632.074-.632.992 0 1.067l5.303.629a14.922 14.922 0 0 1 13.06 13.06l.629 5.303c.075.632.993.632 1.068 0l.629-5.304a14.922 14.922 0 0 1 13.06-13.059l5.303-.63c.632-.074.632-.992 0-1.067l-5.303-.629a14.922 14.922 0 0 1-13.06-13.06l-.629-5.303ZM17.454 107.903c-.064-.537-.844-.537-.908 0l-.534 4.508a12.682 12.682 0 0 1-11.101 11.1l-4.508.535c-.537.064-.537.844 0 .908l4.508.535c5.82.69 10.41 5.279 11.1 11.1l.535 4.508c.064.537.844.537.908 0l.534-4.508a12.682 12.682 0 0 1 11.101-11.1l4.508-.535c.537-.064.537-.844 0-.908l-4.508-.535a12.682 12.682 0 0 1-11.1-11.1l-.535-4.508ZM269.774 92.188c-.109-.917-1.439-.917-1.548 0l-.912 7.69a21.638 21.638 0 0 1-18.937 18.936l-7.689.912c-.917.109-.917 1.439 0 1.548l7.689.912a21.638 21.638 0 0 1 18.937 18.937l.912 7.689c.109.917 1.439.917 1.548 0l.912-7.689a21.638 21.638 0 0 1 18.937-18.937l7.69-.912c.916-.109.916-1.439 0-1.548l-7.69-.912a21.638 21.638 0 0 1-18.937-18.937l-.912-7.69ZM75.58 1.46c-.151-1.28-2.009-1.28-2.16 0L72.144 12.2C70.5 26.065 59.566 37 45.699 38.644L34.96 39.919c-1.28.152-1.28 2.01 0 2.162l10.74 1.274C59.565 45 70.5 55.934 72.144 69.801l1.274 10.739c.152 1.28 2.01 1.28 2.162 0l1.274-10.74C78.5 55.935 89.434 45 103.301 43.356l10.739-1.274c1.28-.152 1.28-2.01 0-2.162l-10.739-1.274C89.434 37 78.501 26.066 76.855 12.199L75.581 1.46Z" fill="#fff"/></svg>