<svg width="570" height="380" viewBox="0 0 570 380" fill="none" xmlns="http://www.w3.org/2000/svg">
<g clip-path="url(#clip0_3599_34102)">
<rect x="134.271" y="252.181" width="248.606" height="248.606" transform="rotate(-19.9549 134.271 252.181)" fill="#FCD4D3"/>
<rect x="111.608" y="59.5961" width="131.529" height="131.529" transform="rotate(-12.7537 111.608 59.5961)" fill="#FCD4D3"/>
<rect x="283.578" y="38.5315" width="49.1608" height="49.1608" transform="rotate(9.82843 283.578 38.5315)" fill="#FCD4D3"/>
<rect x="369.371" y="64.9538" width="30.5594" height="30.5594" fill="#FCD4D3"/>
<rect x="443.776" y="240.293" width="30.5594" height="30.5594" transform="rotate(-9.64132 443.776 240.293)" fill="#FCD4D3"/>
<rect x="330.976" y="108.8" width="30.5594" height="30.5594" transform="rotate(20.6292 330.976 108.8)" fill="#FCD4D3"/>
<rect x="431.294" y="76.9513" width="63.7762" height="63.7762" transform="rotate(-15 431.294 76.9513)" fill="#FCD4D3"/>
<rect x="34.3994" y="175.385" width="71.3095" height="71.3095" transform="rotate(15 34.3994 175.385)" fill="#FCD4D3"/>
<rect x="402.781" y="81.4056" width="71.2587" height="36.6294" rx="10.6294" transform="rotate(15 402.781 81.4056)" fill="#F4A34B"/>
<rect x="185.295" y="98.2324" width="155.259" height="60.6294" rx="10.6294" transform="rotate(4.64637 185.295 98.2324)" fill="#00C8B5"/>
<rect x="194.329" y="252.725" width="209.259" height="81.6294" rx="10.6294" transform="rotate(-4.51724 194.329 252.725)" fill="#64B5FF"/>
<rect x="476.906" y="179.727" width="76.2587" height="47.6294" rx="10.6294" transform="rotate(30 476.906 179.727)" fill="#E77A78"/>
<rect x="30.5879" y="198.856" width="145.259" height="47.6294" rx="10.6294" transform="rotate(-9.28766 30.5879 198.856)" fill="#D7F9D4"/>
<rect x="125.58" y="28.9186" width="77.2587" height="34.6294" rx="10.6294" transform="rotate(-3.20332 125.58 28.9186)" fill="#D291F4"/>
<rect x="119.58" y="22.9186" width="77.2587" height="34.6294" rx="10.6294" transform="rotate(-3.20332 119.58 22.9186)" fill="#6C3688"/>
<path d="M133.567 40.047L139.031 41.684L139.159 43.966L131.711 41.2912L131.62 39.6744L133.567 40.047ZM138.834 38.1641L133.58 40.4348L131.694 40.9965L131.604 39.3797L138.707 35.8905L138.834 38.1641ZM147.575 35.5632L148.085 44.6744L145.651 44.8106L145.141 35.6994L147.575 35.5632ZM144.857 33.3332C144.837 32.9795 144.944 32.6807 145.178 32.4367C145.413 32.1927 145.737 32.0591 146.153 32.0358C146.563 32.0129 146.897 32.1096 147.157 32.3259C147.423 32.542 147.566 32.8268 147.585 33.1805C147.605 33.5342 147.495 33.8331 147.255 34.0775C147.021 34.3214 146.699 34.4549 146.289 34.4778C145.874 34.5011 145.536 34.4045 145.277 34.1882C145.017 33.9719 144.877 33.6869 144.857 33.3332ZM152.11 37.2015L152.514 44.4265L150.081 44.5627L149.571 35.4515L151.853 35.3237L152.11 37.2015ZM151.905 39.5698L151.231 39.6075C151.195 38.9731 151.239 38.385 151.36 37.8432C151.487 37.2955 151.689 36.8168 151.964 36.4072C152.245 35.9916 152.601 35.662 153.032 35.4182C153.463 35.1745 153.971 35.0362 154.555 35.0036C154.959 34.981 155.333 35.022 155.677 35.1266C156.02 35.2257 156.32 35.3975 156.576 35.6423C156.837 35.8811 157.046 36.2016 157.204 36.6039C157.361 37.0005 157.456 37.4824 157.488 38.0494L157.828 44.1292L155.403 44.2649L155.077 38.4546C155.054 38.0391 154.98 37.7223 154.855 37.504C154.73 37.2857 154.562 37.1375 154.349 37.0593C154.142 36.9808 153.895 36.9496 153.609 36.9656C153.294 36.9832 153.023 37.0631 152.794 37.2054C152.571 37.3474 152.391 37.5378 152.252 37.7764C152.113 38.0095 152.015 38.2796 151.959 38.5868C151.903 38.8941 151.885 39.2217 151.905 39.5698ZM157.312 38.9884L156.451 39.1464C156.418 38.5513 156.46 37.9943 156.577 37.4752C156.7 36.9559 156.897 36.4944 157.167 36.0907C157.443 35.6867 157.793 35.3658 158.219 35.1279C158.645 34.8845 159.144 34.7467 159.717 34.7147C160.155 34.6902 160.557 34.7324 160.923 34.8414C161.29 34.9448 161.607 35.127 161.875 35.3879C162.148 35.643 162.364 35.9856 162.524 36.416C162.688 36.846 162.789 37.3782 162.824 38.0126L163.15 43.8313L160.716 43.9675L160.39 38.1488C160.367 37.7277 160.293 37.4109 160.168 37.1982C160.049 36.9796 159.883 36.834 159.671 36.7615C159.464 36.6829 159.22 36.6515 158.939 36.6673C158.647 36.6836 158.395 36.7568 158.183 36.887C157.97 37.0115 157.796 37.1789 157.662 37.3892C157.527 37.5994 157.431 37.8414 157.373 38.1149C157.315 38.3828 157.294 38.674 157.312 38.9884ZM170.286 34.2921L172.484 34.1691L172.977 42.9772C173.023 43.8081 172.877 44.523 172.539 45.1219C172.207 45.7262 171.721 46.1955 171.081 46.5298C170.441 46.8697 169.686 47.064 168.816 47.1127C168.434 47.1341 168.027 47.1062 167.595 47.029C167.168 46.9515 166.755 46.8169 166.356 46.6253C165.962 46.4333 165.627 46.1818 165.35 45.8706L166.34 44.3792C166.639 44.6891 166.978 44.9235 167.359 45.0824C167.74 45.247 168.155 45.3166 168.604 45.2915C169.042 45.267 169.408 45.1649 169.702 44.9851C169.996 44.8109 170.216 44.5649 170.362 44.2471C170.507 43.9348 170.568 43.5625 170.544 43.1303L170.168 36.4105L170.286 34.2921ZM164.417 39.3003L164.407 39.1235C164.368 38.4274 164.417 37.7911 164.553 37.2147C164.695 36.6323 164.912 36.1274 165.203 35.7C165.501 35.2723 165.87 34.9334 166.312 34.6834C166.754 34.4334 167.262 34.2924 167.834 34.2604C168.441 34.2264 168.955 34.3103 169.377 34.5119C169.8 34.7135 170.155 35.0146 170.442 35.4153C170.728 35.8103 170.961 36.2845 171.138 36.8377C171.321 37.385 171.473 37.9875 171.594 38.6452L171.616 39.0326C171.567 39.6716 171.473 40.2682 171.336 40.8221C171.198 41.3761 171.003 41.8657 170.75 42.2909C170.498 42.7105 170.173 43.044 169.776 43.2915C169.384 43.5387 168.908 43.678 168.346 43.7094C167.785 43.7408 167.27 43.6542 166.803 43.4495C166.341 43.2444 165.938 42.9432 165.595 42.5456C165.252 42.1481 164.977 41.6735 164.772 41.1219C164.572 40.5699 164.454 39.9627 164.417 39.3003ZM166.832 38.9877L166.842 39.1646C166.863 39.5407 166.919 39.8895 167.01 40.211C167.101 40.5326 167.23 40.8154 167.396 41.0595C167.567 41.2977 167.771 41.4806 168.009 41.608C168.252 41.7296 168.534 41.7814 168.854 41.7635C169.298 41.7387 169.655 41.6258 169.925 41.4248C170.195 41.2182 170.391 40.9454 170.513 40.6063C170.634 40.2673 170.694 39.881 170.693 39.4474L170.631 38.3443C170.6 37.9913 170.534 37.6768 170.435 37.4008C170.334 37.1192 170.203 36.8816 170.04 36.688C169.877 36.4944 169.672 36.3482 169.424 36.2494C169.176 36.1506 168.887 36.1105 168.556 36.1291C168.236 36.147 167.962 36.2355 167.734 36.3946C167.512 36.5479 167.329 36.7524 167.186 37.0082C167.048 37.2637 166.949 37.5621 166.889 37.9033C166.829 38.2389 166.81 38.6004 166.832 38.9877ZM184.346 37.5429L178.841 35.9167L178.714 33.6515L186.221 36.323L186.312 37.9482L184.346 37.5429ZM179.039 39.4618L184.335 37.1888L186.238 36.6177L186.328 38.2345L179.166 41.727L179.039 39.4618Z" fill="white"/>
<rect x="177.295" y="90.2324" width="155.259" height="60.6294" rx="10.6294" transform="rotate(4.64637 177.295 90.2324)" fill="#0E857A"/>
<path d="M190.299 122.426L201.077 127.344L200.692 132.075L186.127 124.459L186.399 121.107L190.299 122.426ZM201.67 120.046L190.216 123.227L186.176 123.848L186.449 120.496L202.053 115.332L201.67 120.046ZM215.728 108.816L220.756 109.225L218.929 131.712L218.071 136.001L213.549 135.633L215.728 108.816ZM231.32 127.376L231.29 127.743C231.175 129.151 230.919 130.431 230.521 131.582C230.134 132.734 229.598 133.715 228.911 134.527C228.225 135.326 227.403 135.927 226.444 136.33C225.499 136.721 224.409 136.867 223.175 136.767C222.023 136.673 221.041 136.359 220.229 135.824C219.429 135.291 218.778 134.576 218.277 133.68C217.775 132.784 217.397 131.751 217.14 130.582C216.884 129.413 216.723 128.147 216.658 126.782L216.723 125.979C217.008 124.643 217.371 123.419 217.813 122.307C218.255 121.194 218.795 120.237 219.435 119.433C220.074 118.63 220.832 118.03 221.707 117.632C222.583 117.235 223.592 117.082 224.732 117.175C225.978 117.276 227.041 117.603 227.921 118.155C228.815 118.696 229.529 119.422 230.064 120.332C230.612 121.232 230.984 122.282 231.179 123.481C231.387 124.669 231.434 125.968 231.32 127.376ZM226.262 127.334L226.291 126.968C226.354 126.199 226.354 125.473 226.293 124.788C226.244 124.093 226.106 123.479 225.88 122.945C225.655 122.399 225.322 121.956 224.881 121.616C224.452 121.276 223.876 121.077 223.155 121.019C222.468 120.963 221.876 121.032 221.38 121.226C220.884 121.42 220.462 121.714 220.114 122.107C219.777 122.501 219.509 122.984 219.311 123.553C219.113 124.111 218.969 124.732 218.878 125.416L218.692 127.703C218.652 128.626 218.737 129.453 218.947 130.184C219.17 130.905 219.544 131.492 220.07 131.945C220.608 132.387 221.331 132.645 222.239 132.719C222.949 132.777 223.548 132.685 224.036 132.443C224.524 132.202 224.917 131.835 225.215 131.344C225.524 130.854 225.759 130.269 225.92 129.591C226.081 128.901 226.195 128.149 226.262 127.334ZM233.61 127.949L233.64 127.582C233.753 126.197 234.054 124.939 234.545 123.807C235.036 122.664 235.695 121.692 236.521 120.892C237.348 120.092 238.333 119.499 239.478 119.111C240.623 118.712 241.912 118.571 243.344 118.688C244.775 118.804 246.03 119.152 247.108 119.732C248.186 120.3 249.069 121.045 249.755 121.968C250.454 122.892 250.953 123.957 251.253 125.165C251.554 126.361 251.648 127.652 251.536 129.037L251.506 129.403C251.394 130.777 251.093 132.035 250.602 133.179C250.111 134.311 249.447 135.282 248.607 136.092C247.781 136.892 246.795 137.486 245.651 137.873C244.506 138.26 243.218 138.396 241.787 138.279C240.355 138.163 239.1 137.821 238.021 137.253C236.954 136.686 236.072 135.94 235.373 135.017C234.688 134.082 234.194 133.017 233.893 131.821C233.593 130.613 233.499 129.323 233.61 127.949ZM238.668 127.991L238.639 128.358C238.574 129.149 238.584 129.894 238.668 130.592C238.752 131.29 238.924 131.913 239.184 132.462C239.456 132.999 239.831 133.434 240.308 133.766C240.785 134.097 241.384 134.293 242.106 134.351C242.804 134.408 243.415 134.311 243.94 134.061C244.464 133.811 244.898 133.442 245.242 132.954C245.587 132.455 245.858 131.868 246.053 131.192C246.26 130.518 246.396 129.785 246.46 128.993L246.49 128.627C246.553 127.859 246.536 127.131 246.439 126.443C246.355 125.745 246.177 125.122 245.906 124.572C245.647 124.012 245.279 123.561 244.803 123.217C244.327 122.874 243.734 122.674 243.024 122.616C242.314 122.558 241.697 122.66 241.172 122.922C240.658 123.185 240.223 123.571 239.865 124.081C239.52 124.581 239.249 125.168 239.054 125.843C238.859 126.507 238.731 127.223 238.668 127.991ZM265.335 135.694L267.18 112.997L272.243 113.409L270.064 140.226L265.507 139.856L265.335 135.694ZM253.808 129.626L253.838 129.259C253.955 127.816 254.224 126.52 254.646 125.37C255.068 124.21 255.628 123.23 256.326 122.432C257.023 121.633 257.851 121.038 258.808 120.647C259.765 120.256 260.832 120.109 262.007 120.204C263.113 120.294 264.06 120.606 264.849 121.138C265.649 121.672 266.305 122.393 266.817 123.302C267.342 124.2 267.737 125.245 268.003 126.439C268.27 127.62 268.43 128.904 268.481 130.291L268.416 131.094C268.146 132.396 267.785 133.597 267.332 134.697C266.88 135.796 266.322 136.747 265.659 137.548C265.009 138.339 264.246 138.933 263.37 139.331C262.494 139.728 261.498 139.881 260.38 139.791C259.205 139.695 258.177 139.371 257.296 138.819C256.427 138.268 255.713 137.537 255.155 136.624C254.608 135.713 254.219 134.662 253.987 133.472C253.756 132.281 253.696 130.999 253.808 129.626ZM258.866 129.668L258.836 130.034C258.773 130.814 258.772 131.546 258.833 132.231C258.906 132.916 259.061 133.532 259.298 134.079C259.547 134.615 259.887 135.046 260.318 135.374C260.76 135.692 261.314 135.877 261.977 135.931C262.838 136.001 263.564 135.867 264.154 135.528C264.745 135.178 265.214 134.671 265.56 134.008C265.919 133.346 266.158 132.568 266.277 131.676L266.463 129.389C266.488 128.653 266.436 127.987 266.309 127.39C266.194 126.784 265.991 126.257 265.699 125.812C265.419 125.367 265.05 125.009 264.592 124.738C264.145 124.467 263.601 124.306 262.961 124.254C262.309 124.201 261.738 124.307 261.248 124.571C260.759 124.825 260.348 125.195 260.016 125.684C259.695 126.173 259.436 126.762 259.239 127.449C259.056 128.125 258.931 128.865 258.866 129.668ZM279.77 138.871L286.142 122.517L291.537 122.956L282.176 144.075C281.974 144.539 281.712 145.033 281.388 145.558C281.076 146.083 280.667 146.571 280.162 147.022C279.667 147.486 279.058 147.846 278.334 148.104C277.621 148.362 276.765 148.451 275.764 148.369C275.287 148.331 274.899 148.27 274.601 148.187C274.303 148.104 273.949 147.993 273.539 147.855L273.838 144.171C273.966 144.181 274.1 144.192 274.24 144.203C274.378 144.226 274.512 144.243 274.64 144.254C275.303 144.307 275.851 144.276 276.282 144.159C276.713 144.041 277.07 143.836 277.351 143.542C277.632 143.261 277.868 142.881 278.059 142.405L279.77 138.871ZM279.037 121.94L282.027 135.961L282.31 141.344L278.858 141.433L273.642 121.501L279.037 121.94ZM313.084 133.108L302.218 128.2L302.6 123.503L317.287 131.129L317.014 134.499L313.084 133.108ZM301.621 135.55L313.162 132.376L317.238 131.74L316.965 135.093L301.239 140.247L301.621 135.55Z" fill="white"/>
<g clip-path="url(#clip1_3599_34102)">
<rect x="22.5879" y="190.856" width="145.259" height="47.6294" rx="10.6294" transform="rotate(-9.28766 22.5879 190.856)" fill="#46AF4B"/>
<path d="M40.717 213.181L49.3427 214.795L49.9102 218.265L38.0801 215.388L37.678 212.929L40.717 213.181ZM48.4674 209.442L40.8005 213.773L38.0068 214.939L37.6047 212.481L47.902 205.985L48.4674 209.442ZM60.1697 198.273L63.3862 217.941L59.6983 218.544L56.4818 198.876L60.1697 198.273ZM61.6487 210.613L60.6371 210.778C60.4879 209.812 60.4708 208.904 60.5857 208.052C60.6993 207.192 60.9377 206.426 61.3009 205.753C61.6628 205.071 62.1366 204.512 62.7224 204.074C63.3168 203.635 64.0067 203.351 64.7921 203.223C65.475 203.111 66.11 203.108 66.697 203.214C67.2911 203.309 67.8237 203.538 68.2947 203.899C68.7729 204.25 69.1788 204.749 69.5125 205.396C69.8461 206.042 70.0925 206.852 70.2516 207.826L71.684 216.584L67.9705 217.192L66.534 208.407C66.4334 207.793 66.2649 207.325 66.0284 207.004C65.799 206.674 65.506 206.463 65.1493 206.372C64.7998 206.272 64.386 206.26 63.908 206.339C63.3787 206.425 62.9423 206.597 62.5988 206.855C62.2638 207.112 62.014 207.433 61.8492 207.819C61.6831 208.197 61.5865 208.625 61.5595 209.102C61.5324 209.58 61.5622 210.084 61.6487 210.613ZM80.9072 215.339C79.8316 215.515 78.839 215.502 77.9295 215.3C77.0186 215.09 76.2141 214.726 75.516 214.209C74.8264 213.691 74.2574 213.052 73.8089 212.293C73.359 211.525 73.0587 210.68 72.9079 209.758L72.8241 209.246C72.6524 208.196 72.6448 207.211 72.8012 206.291C72.9575 205.371 73.2608 204.546 73.711 203.815C74.1697 203.083 74.7724 202.48 75.519 202.008C76.2643 201.526 77.1405 201.203 78.1479 201.039C79.1296 200.878 80.0269 200.898 80.8397 201.098C81.6525 201.298 82.3639 201.655 82.9739 202.169C83.5923 202.681 84.1023 203.334 84.5037 204.128C84.9038 204.912 85.1869 205.813 85.353 206.829L85.6043 208.365L74.5918 210.166L74.1898 207.707L81.5784 206.499L81.5323 206.217C81.4485 205.705 81.28 205.264 81.0265 204.893C80.7802 204.513 80.454 204.233 80.0478 204.054C79.6417 203.875 79.1526 203.832 78.5806 203.926C78.094 204.006 77.6932 204.181 77.3781 204.451C77.063 204.722 76.8259 205.068 76.6667 205.488C76.5161 205.907 76.4279 206.386 76.4021 206.925C76.3834 207.454 76.4243 208.026 76.5249 208.64L76.6086 209.153C76.6994 209.707 76.86 210.207 77.0904 210.652C77.3294 211.095 77.6219 211.463 77.968 211.757C78.3226 212.05 78.7245 212.256 79.1735 212.375C79.631 212.493 80.1287 212.508 80.6665 212.42C81.3324 212.311 81.9304 212.082 82.4605 211.732C82.9977 211.373 83.4322 210.894 83.7639 210.296L85.875 211.95C85.6531 212.415 85.3218 212.882 84.8809 213.348C84.4486 213.813 83.9027 214.227 83.2432 214.589C82.5822 214.942 81.8036 215.192 80.9072 215.339ZM95.6182 209.462L94.6088 203.29C94.5362 202.846 94.4016 202.478 94.2048 202.186C94.0066 201.885 93.7392 201.671 93.4025 201.542C93.0744 201.411 92.6714 201.385 92.1933 201.463C91.7835 201.53 91.4411 201.661 91.1661 201.855C90.8896 202.04 90.6919 202.278 90.573 202.57C90.4527 202.852 90.4211 203.169 90.4784 203.519L86.7905 204.122C86.6942 203.533 86.7393 202.951 86.9259 202.377C87.1125 201.803 87.4334 201.273 87.8886 200.787C88.3423 200.292 88.9089 199.87 89.5882 199.523C90.2762 199.173 91.0683 198.926 91.9647 198.779C93.0403 198.603 94.0258 198.626 94.921 198.848C95.8163 199.069 96.5615 199.5 97.1569 200.139C97.7607 200.776 98.1506 201.633 98.3265 202.708L99.2961 208.637C99.4204 209.397 99.5692 210.013 99.7427 210.484C99.9148 210.946 100.12 211.342 100.358 211.672L100.393 211.889L96.667 212.499C96.4263 212.152 96.2129 211.705 96.0269 211.157C95.8479 210.599 95.7117 210.034 95.6182 209.462ZM95.2357 204.068L95.6027 206.152L93.541 206.489C93.0545 206.568 92.641 206.693 92.3006 206.862C91.9602 207.032 91.6915 207.238 91.4945 207.481C91.2961 207.715 91.1631 207.973 91.0954 208.256C91.0362 208.537 91.0324 208.836 91.0841 209.152C91.1357 209.468 91.2551 209.742 91.4421 209.974C91.6277 210.198 91.869 210.36 92.1659 210.461C92.4614 210.553 92.7927 210.569 93.1598 210.509C93.7147 210.418 94.1788 210.228 94.5523 209.939C94.9258 209.65 95.197 209.325 95.3659 208.964C95.5433 208.602 95.6126 208.275 95.5736 207.984L96.8023 209.387C96.723 209.759 96.5945 210.153 96.4169 210.568C96.2478 210.981 96.0112 211.383 95.7071 211.775C95.4016 212.158 95.0145 212.497 94.5457 212.793C94.0756 213.08 93.4947 213.28 92.8033 213.394C91.924 213.537 91.0972 213.493 90.3228 213.26C89.5556 213.017 88.9119 212.619 88.3917 212.064C87.8786 211.499 87.5565 210.816 87.4253 210.013C87.3066 209.288 87.3378 208.621 87.5188 208.013C87.6999 207.405 88.0236 206.865 88.4901 206.394C88.9637 205.914 89.5856 205.51 90.356 205.182C91.1249 204.846 92.0387 204.591 93.0973 204.418L95.2357 204.068ZM110.374 207.154L107.651 190.508L111.365 189.9L114.581 209.569L111.239 210.116L110.374 207.154ZM101.003 204.848L100.96 204.579C100.786 203.52 100.749 202.54 100.847 201.639C100.944 200.729 101.171 199.925 101.53 199.226C101.89 198.528 102.378 197.953 102.997 197.501C103.615 197.049 104.356 196.753 105.218 196.612C106.029 196.479 106.766 196.534 107.428 196.776C108.098 197.017 108.698 197.419 109.228 197.981C109.766 198.533 110.237 199.214 110.641 200.024C111.044 200.826 111.387 201.721 111.671 202.709L111.768 203.298C111.806 204.282 111.761 205.21 111.631 206.081C111.502 206.952 111.271 207.735 110.937 208.43C110.611 209.114 110.168 209.677 109.61 210.119C109.051 210.561 108.362 210.849 107.542 210.983C106.68 211.124 105.883 211.075 105.151 210.835C104.428 210.594 103.784 210.195 103.22 209.639C102.664 209.081 102.197 208.395 101.819 207.581C101.44 206.766 101.168 205.855 101.003 204.848ZM104.647 203.976L104.691 204.245C104.785 204.816 104.915 205.343 105.081 205.824C105.256 206.304 105.477 206.719 105.745 207.07C106.02 207.411 106.341 207.66 106.709 207.819C107.084 207.968 107.515 208.003 108.001 207.924C108.633 207.82 109.131 207.594 109.495 207.246C109.857 206.888 110.104 206.44 110.235 205.902C110.374 205.362 110.407 204.76 110.334 204.097L110.06 202.42C109.946 201.886 109.79 201.417 109.593 201.011C109.402 200.595 109.162 200.253 108.873 199.985C108.592 199.715 108.262 199.523 107.885 199.41C107.515 199.295 107.096 199.276 106.626 199.353C106.148 199.431 105.756 199.609 105.451 199.887C105.145 200.156 104.915 200.496 104.763 200.906C104.62 201.315 104.539 201.785 104.52 202.313C104.509 202.833 104.551 203.387 104.647 203.976ZM123.882 208.311C122.806 208.487 121.813 208.474 120.904 208.272C119.993 208.062 119.188 207.698 118.49 207.181C117.801 206.663 117.232 206.024 116.783 205.265C116.333 204.497 116.033 203.652 115.882 202.73L115.798 202.218C115.627 201.168 115.619 200.183 115.775 199.263C115.932 198.344 116.235 197.518 116.685 196.787C117.144 196.055 117.747 195.452 118.493 194.98C119.239 194.498 120.115 194.175 121.122 194.011C122.104 193.85 123.001 193.87 123.814 194.07C124.627 194.27 125.338 194.627 125.948 195.141C126.567 195.653 127.077 196.306 127.478 197.1C127.878 197.884 128.161 198.785 128.327 199.801L128.579 201.337L117.566 203.138L117.164 200.68L124.553 199.471L124.507 199.19C124.423 198.677 124.254 198.236 124.001 197.866C123.755 197.485 123.428 197.205 123.022 197.026C122.616 196.847 122.127 196.805 121.555 196.898C121.068 196.978 120.667 197.153 120.352 197.424C120.037 197.694 119.8 198.04 119.641 198.46C119.49 198.879 119.402 199.358 119.376 199.897C119.358 200.426 119.399 200.998 119.499 201.613L119.583 202.125C119.674 202.68 119.834 203.179 120.065 203.624C120.304 204.067 120.596 204.435 120.942 204.729C121.297 205.022 121.699 205.228 122.148 205.347C122.605 205.465 123.103 205.48 123.641 205.392C124.307 205.283 124.905 205.054 125.435 204.705C125.972 204.345 126.406 203.866 126.738 203.269L128.849 204.922C128.627 205.388 128.296 205.854 127.855 206.32C127.423 206.785 126.877 207.199 126.217 207.561C125.557 207.915 124.778 208.165 123.882 208.311ZM133.541 195.346L135.313 206.179L131.625 206.782L129.359 192.927L132.83 192.359L133.541 195.346ZM137.207 191.551L137.702 194.981C137.519 194.984 137.298 194.999 137.039 195.023C136.787 195.038 136.559 195.063 136.354 195.096C135.833 195.181 135.392 195.323 135.03 195.523C134.675 195.712 134.391 195.956 134.177 196.254C133.971 196.551 133.834 196.893 133.766 197.281C133.706 197.668 133.707 198.097 133.766 198.569L132.986 198.46C132.839 197.564 132.794 196.726 132.851 195.945C132.906 195.156 133.058 194.452 133.307 193.832C133.565 193.212 133.921 192.707 134.374 192.317C134.828 191.927 135.379 191.679 136.027 191.573C136.232 191.54 136.444 191.523 136.663 191.522C136.881 191.513 137.062 191.522 137.207 191.551ZM154.793 195.052L146.105 193.462L145.542 190.017L157.461 192.88L157.866 195.351L154.793 195.052ZM146.987 198.853L154.718 194.512L157.535 193.328L157.937 195.787L147.55 202.297L146.987 198.853Z" fill="white"/>
</g>
<rect x="191.329" y="241.725" width="201.259" height="81.6294" rx="10.6294" transform="rotate(-4.51724 191.329 241.725)" fill="#0072C0"/>
<path d="M212.198 282.647L228.275 287.064L228.802 293.725L206.857 286.407L206.484 281.688L212.198 282.647ZM227.464 276.791L212.263 283.779L206.789 285.547L206.416 280.828L226.94 270.156L227.464 276.791ZM251.386 257.492L254.368 295.241L247.29 295.8L244.308 258.051L251.386 257.492ZM252.237 281.091L250.295 281.244C250.165 279.392 250.276 277.668 250.628 276.074C250.979 274.464 251.552 273.05 252.346 271.833C253.139 270.6 254.124 269.615 255.303 268.879C256.498 268.142 257.849 267.714 259.356 267.595C260.667 267.491 261.869 267.586 262.964 267.878C264.074 268.153 265.046 268.67 265.881 269.428C266.731 270.169 267.421 271.178 267.95 272.455C268.48 273.732 268.818 275.305 268.966 277.173L270.294 293.983L263.167 294.546L261.835 277.686C261.742 276.507 261.496 275.595 261.099 274.95C260.717 274.288 260.196 273.843 259.535 273.615C258.889 273.369 258.107 273.282 257.19 273.355C256.174 273.435 255.32 273.692 254.629 274.126C253.954 274.558 253.431 275.127 253.058 275.833C252.683 276.522 252.433 277.316 252.306 278.217C252.18 279.117 252.156 280.075 252.237 281.091ZM286.601 265.937L286.997 270.95L271.514 272.174L271.118 267.16L286.601 265.937ZM274.433 260.295L281.511 259.736L283.498 284.878C283.558 285.648 283.703 286.23 283.932 286.624C284.178 287.017 284.512 287.279 284.934 287.41C285.355 287.525 285.877 287.558 286.5 287.509C286.942 287.474 287.334 287.427 287.676 287.367C288.032 287.289 288.332 287.216 288.573 287.148L289.01 292.356C288.419 292.6 287.776 292.808 287.08 292.978C286.385 293.148 285.611 293.267 284.759 293.335C283.203 293.458 281.823 293.311 280.619 292.895C279.431 292.461 278.48 291.696 277.767 290.598C277.054 289.5 276.623 288.017 276.476 286.15L274.433 260.295ZM298.144 270.564L299.81 291.651L292.708 292.212L290.607 265.62L297.267 265.094L298.144 270.564ZM297.703 277.499L295.737 277.654C295.591 275.803 295.677 274.081 295.997 272.49C296.331 270.881 296.887 269.468 297.665 268.253C298.458 267.02 299.476 266.032 300.72 265.291C301.964 264.55 303.438 264.112 305.142 263.977C306.322 263.884 307.417 263.979 308.429 264.262C309.439 264.528 310.326 265.01 311.09 265.708C311.869 266.389 312.503 267.311 312.991 268.476C313.477 269.625 313.786 271.027 313.916 272.682L315.318 290.426L308.24 290.985L306.9 274.027C306.805 272.815 306.567 271.894 306.187 271.264C305.808 270.635 305.305 270.213 304.678 269.999C304.067 269.783 303.344 269.708 302.509 269.774C301.591 269.847 300.803 270.099 300.145 270.53C299.503 270.96 298.987 271.528 298.598 272.235C298.207 272.925 297.94 273.721 297.797 274.623C297.654 275.524 297.623 276.483 297.703 277.499ZM313.466 275.437L310.96 275.957C310.823 274.22 310.908 272.589 311.217 271.065C311.541 269.539 312.085 268.177 312.848 266.979C313.627 265.78 314.63 264.819 315.859 264.095C317.087 263.355 318.536 262.919 320.207 262.787C321.485 262.686 322.663 262.783 323.742 263.077C324.819 263.354 325.758 263.865 326.559 264.61C327.374 265.337 328.029 266.324 328.524 267.571C329.034 268.816 329.363 270.365 329.509 272.216L330.85 289.199L323.748 289.76L322.406 272.777C322.309 271.549 322.071 270.628 321.693 270.015C321.33 269.384 320.836 268.969 320.21 268.772C319.6 268.556 318.885 268.481 318.066 268.545C317.214 268.613 316.482 268.844 315.87 269.238C315.257 269.616 314.761 270.117 314.381 270.741C314.002 271.364 313.737 272.077 313.586 272.881C313.434 273.668 313.394 274.52 313.466 275.437ZM340.82 250.426L343.802 288.175L336.7 288.737L333.717 250.987L340.82 250.426ZM376.938 270.621L360.74 266.237L360.218 259.626L382.335 266.93L382.709 271.673L376.938 270.621ZM361.558 276.584L376.881 269.586L382.403 267.79L382.775 272.509L362.08 283.195L361.558 276.584Z" fill="white"/>
<g clip-path="url(#clip2_3599_34102)">
<rect x="398.781" y="74.4056" width="71.2587" height="36.6294" rx="10.6294" transform="rotate(15 398.781 74.4056)" fill="#AF620E"/>
<path d="M406.743 95.6558L411.782 99.1688L411.145 101.546L404.426 96.3042L404.877 94.6198L406.743 95.6558ZM412.765 95.5015L406.626 96.057L404.508 95.9972L404.959 94.3127L413.4 93.1328L412.765 95.5015ZM423.448 91.7441L419.837 105.22L417.31 104.543L420.921 91.0671L423.448 91.7441ZM420.838 100.044L420.145 99.858C420.328 99.1987 420.579 98.6139 420.897 98.1037C421.217 97.5877 421.59 97.1673 422.016 96.8425C422.443 96.5118 422.906 96.2912 423.406 96.1807C423.912 96.0717 424.433 96.0893 424.972 96.2335C425.439 96.3588 425.845 96.5397 426.19 96.7761C426.541 97.0082 426.815 97.3073 427.012 97.6734C427.216 98.0352 427.331 98.4705 427.358 98.9791C427.384 99.4878 427.308 100.075 427.13 100.742L425.522 106.743L422.978 106.061L424.59 100.043C424.703 99.6219 424.73 99.2749 424.672 99.0022C424.62 98.7252 424.494 98.5065 424.293 98.3459C424.099 98.1811 423.838 98.0548 423.51 97.967C423.148 97.8699 422.82 97.8541 422.526 97.9196C422.239 97.9868 421.987 98.1199 421.77 98.3189C421.556 98.5121 421.371 98.7572 421.216 99.0543C421.061 99.3513 420.935 99.6811 420.838 100.044ZM436.926 96.0798L433.497 108.88L430.97 108.203L433.619 98.3155L430.325 98.4672L430.859 96.4757L436.654 96.007L436.926 96.0798ZM449.34 107.446L444.254 103.93L444.887 101.57L451.668 106.828L451.214 108.521L449.34 107.446ZM443.265 107.623L449.447 107.08L451.586 107.135L451.134 108.82L442.632 109.983L443.265 107.623Z" fill="white"/>
</g>
<g clip-path="url(#clip3_3599_34102)">
<rect x="472.906" y="172.727" width="76.2587" height="47.6294" rx="10.6294" transform="rotate(30 472.906 172.727)" fill="#C2423F"/>
<path d="M472.801 201.486L478.456 208.197L476.697 211.242L469.363 201.524L470.609 199.367L472.801 201.486ZM481.167 203.5L472.491 201.997L469.59 201.131L470.836 198.973L482.919 200.466L481.167 203.5ZM492.32 218.749L495.447 213.332C495.672 212.943 495.801 212.573 495.834 212.222C495.871 211.864 495.8 211.528 495.621 211.215C495.449 210.907 495.154 210.631 494.735 210.389C494.375 210.181 494.027 210.066 493.692 210.041C493.36 210.01 493.056 210.069 492.78 210.219C492.508 210.362 492.283 210.587 492.106 210.894L488.869 209.025C489.168 208.509 489.571 208.087 490.079 207.761C490.587 207.435 491.171 207.228 491.831 207.14C492.496 207.044 493.201 207.076 493.947 207.237C494.701 207.403 495.471 207.713 496.257 208.167C497.201 208.712 497.949 209.353 498.502 210.092C499.054 210.83 499.359 211.635 499.415 212.507C499.479 213.383 499.238 214.292 498.693 215.236L495.689 220.439C495.304 221.106 495.03 221.676 494.866 222.151C494.706 222.618 494.614 223.054 494.589 223.46L494.479 223.651L491.209 221.763C491.242 221.343 491.36 220.861 491.563 220.319C491.778 219.774 492.03 219.251 492.32 218.749ZM495.44 214.332L494.405 216.177L492.595 215.132C492.168 214.885 491.769 214.72 491.399 214.636C491.028 214.552 490.689 214.541 490.383 214.604C490.082 214.659 489.815 214.775 489.583 214.951C489.359 215.132 489.167 215.36 489.007 215.637C488.847 215.915 488.766 216.202 488.764 216.501C488.766 216.791 488.85 217.07 489.016 217.335C489.186 217.594 489.433 217.816 489.755 218.002C490.242 218.283 490.721 218.43 491.193 218.443C491.665 218.456 492.081 218.376 492.44 218.204C492.807 218.036 493.067 217.827 493.222 217.576L493.284 219.44C492.987 219.678 492.639 219.901 492.239 220.11C491.846 220.323 491.408 220.484 490.925 220.595C490.446 220.698 489.931 220.715 489.381 220.648C488.835 220.572 488.259 220.359 487.652 220.009C486.881 219.564 486.269 219.006 485.817 218.335C485.377 217.661 485.131 216.945 485.08 216.186C485.04 215.425 485.224 214.691 485.63 213.987C485.998 213.351 486.444 212.854 486.969 212.498C487.495 212.142 488.087 211.93 488.746 211.861C489.417 211.789 490.154 211.87 490.958 212.104C491.766 212.331 492.634 212.712 493.563 213.248L495.44 214.332ZM513.421 225.538L507.704 218.806L509.449 215.783L516.862 225.547L515.61 227.715L513.421 225.538ZM504.973 223.537L513.705 225.072L516.635 225.94L515.39 228.097L503.228 226.559L504.973 223.537Z" fill="white"/>
</g>
</g>
<defs>
<clipPath id="clip0_3599_34102">
<rect width="570" height="380" fill="white"/>
</clipPath>
<clipPath id="clip1_3599_34102">
<rect x="22.5879" y="190.856" width="145.259" height="47.6294" rx="10.6294" transform="rotate(-9.28766 22.5879 190.856)" fill="white"/>
</clipPath>
<clipPath id="clip2_3599_34102">
<rect x="398.781" y="74.4056" width="71.2587" height="36.6294" rx="10.6294" transform="rotate(15 398.781 74.4056)" fill="white"/>
</clipPath>
<clipPath id="clip3_3599_34102">
<rect x="472.906" y="172.727" width="76.2587" height="47.6294" rx="10.6294" transform="rotate(30 472.906 172.727)" fill="white"/>
</clipPath>
</defs>
</svg>
