<svg width="570" height="380" viewBox="0 0 570 380" fill="none" xmlns="http://www.w3.org/2000/svg">
<g clip-path="url(#clip0_3599_34125)">
<path d="M534.911 236.131L534.911 249.802C534.911 270.069 537.98 290.219 544.016 309.567L565.986 380L419.064 380L438.256 326.739C446.119 304.917 450.139 281.897 450.139 258.702L450.139 236.131C450.139 214.905 433.053 197.683 412.143 197.683C391.236 197.683 374.146 214.905 374.146 236.131L374.146 290.742L374.146 377.465L289.375 377.465L289.375 236.131C289.375 167.748 344.405 112.064 412.143 112.064C479.881 112.064 534.911 167.748 534.911 236.131Z" fill="#E1D0EA"/>
<path d="M373.787 178.042L373.787 274.719C373.787 288.177 376.646 301.482 382.176 313.751L412.032 380L222.465 380L253.42 301.957C258.714 288.611 261.433 274.382 261.433 260.024L261.433 178.042C261.433 149.891 238.787 127.052 211.072 127.052C183.363 127.052 160.712 149.891 160.712 178.042L160.712 267.21C160.712 276.808 162.661 286.306 166.439 295.128L202.788 380L4.42853 380L34.3718 313.035C43.5921 292.415 48.358 270.081 48.358 247.493L48.358 178.042C48.358 87.352 121.294 13.5035 211.072 13.5035C300.851 13.5035 373.787 87.352 373.787 178.042Z" fill="#E1D0EA"/>
<path fill-rule="evenodd" clip-rule="evenodd" d="M337.352 78.8985C338.618 79.0713 339.506 80.2392 339.335 81.5072L330.901 143.994C330.73 145.262 329.565 146.15 328.299 145.977C327.033 145.804 326.145 144.636 326.316 143.368L334.75 80.8815C334.921 79.6135 336.086 78.7257 337.352 78.8985Z" fill="#C6C6C6"/>
<path fill-rule="evenodd" clip-rule="evenodd" d="M321.746 76.7704C323.012 76.9432 323.899 78.1112 323.728 79.3791L317.591 124.861C317.42 126.129 316.256 127.017 314.99 126.844C313.724 126.671 312.837 125.503 313.008 124.235L319.144 78.7534C319.315 77.4854 320.48 76.5976 321.746 76.7704Z" fill="#C6C6C6"/>
<path d="M335.637 30.6781C337.294 30.9046 338.89 31.4564 340.335 32.3018C341.779 33.1473 343.044 34.27 344.057 35.6056C345.069 36.9413 345.81 38.4637 346.236 40.086C346.662 41.7082 346.765 43.3985 346.54 45.0601L341.683 81.1098L316.466 77.6625L321.323 41.6128C321.546 39.9508 322.093 38.3494 322.933 36.9003C323.773 35.4511 324.889 34.1825 326.218 33.167C327.548 32.1515 329.064 31.409 330.68 30.982C332.296 30.5549 333.981 30.4517 335.637 30.6781Z" fill="#F3524F"/>
<path d="M342.863 78.9133L315.88 75.2272C314.257 75.0055 312.764 76.1444 312.545 77.771L312.524 77.9244C312.305 79.5509 313.442 81.0492 315.065 81.2709L342.048 84.957C343.671 85.1787 345.164 84.0398 345.383 82.4132L345.404 82.2598C345.623 80.6332 344.486 79.135 342.863 78.9133Z" fill="#F3524F"/>
<path fill-rule="evenodd" clip-rule="evenodd" d="M357.637 21.7429C358.458 22.7218 358.334 24.1829 357.36 25.0063L350.147 31.1007C349.172 31.9241 347.716 31.7981 346.894 30.8192C346.072 29.8404 346.196 28.3793 347.171 27.5559L354.384 21.4615C355.359 20.6381 356.815 20.7641 357.637 21.7429Z" fill="#F3524F"/>
<path fill-rule="evenodd" clip-rule="evenodd" d="M341.281 2.79709C342.534 3.04297 343.351 4.26024 343.107 5.51595L340.488 19.0105C340.244 20.2662 339.031 21.0849 337.779 20.839C336.527 20.5931 335.709 19.3759 335.953 18.1201L338.573 4.62555C338.816 3.36984 340.029 2.55122 341.281 2.79709Z" fill="#F3524F"/>
<path fill-rule="evenodd" clip-rule="evenodd" d="M318.312 12.3289C319.444 11.7418 320.837 12.1873 321.424 13.3238L326.517 23.1974C327.104 24.334 326.661 25.7313 325.529 26.3184C324.397 26.9055 323.004 26.4601 322.418 25.3235L317.324 15.4499C316.738 14.3133 317.18 12.916 318.312 12.3289Z" fill="#F3524F"/>
<path d="M464.915 246.591L547.948 286.275C551.684 288.061 558.084 282.374 562.247 273.572C566.411 264.77 566.758 256.191 563.023 254.405L479.989 214.721L464.915 246.591Z" fill="#FE8E15"/>
<path d="M479.656 215.461L561.122 258.409C564.563 260.053 564.534 267.49 561.24 275.53C561.592 274.885 561.925 274.23 562.248 273.547C566.411 264.749 566.758 256.173 563.023 254.389L480.005 214.721L479.656 215.461Z" fill="#FFC78A"/>
<path d="M479.242 233.922C483.41 225.109 483.758 216.517 480.019 214.73C476.28 212.943 469.87 218.637 465.702 227.45C461.534 236.262 461.186 244.854 464.926 246.642C468.665 248.429 475.075 242.734 479.242 233.922Z" fill="#F2F2F2"/>
<path d="M466.545 227.853C469.923 220.71 476.125 213.905 479.619 215.575C483.113 217.245 481.782 226.367 478.4 233.519C475.017 240.671 468.819 247.466 465.325 245.796C461.831 244.126 463.167 234.995 466.545 227.853ZM465.702 227.45C461.533 236.263 461.185 244.854 464.926 246.642C468.666 248.429 475.074 242.735 479.242 233.922C483.411 225.108 483.759 216.517 480.019 214.73C476.279 212.942 469.871 218.636 465.702 227.45Z" fill="#FFC78A"/>
<path d="M476.819 232.763C479.759 226.547 480.197 220.578 477.796 219.431C475.396 218.284 471.066 222.393 468.126 228.609C465.186 234.825 464.749 240.794 467.149 241.941C469.55 243.088 473.879 238.979 476.819 232.763Z" stroke="#D9D9D9" stroke-width="2.00704" stroke-miterlimit="10"/>
<path d="M472.087 224.924L475.201 226.413C476.195 226.888 476.048 229.309 474.858 231.826C473.668 234.343 471.902 235.99 470.899 235.511L467.784 234.022" fill="#C6C6C6"/>
<path d="M471.749 230.341C472.937 227.828 473.091 225.404 472.092 224.927C471.093 224.449 469.32 226.099 468.131 228.612C466.943 231.124 466.789 233.548 467.788 234.026C468.787 234.503 470.56 232.853 471.749 230.341Z" fill="#F2F2F2"/>
<path fill-rule="evenodd" clip-rule="evenodd" d="M434.662 117.168C433.229 116.537 431.716 116.836 431.284 117.836L409.976 167.104C409.543 168.104 410.355 169.426 411.789 170.057C413.223 170.687 414.735 170.388 415.168 169.389L436.475 120.121C436.908 119.121 436.096 117.799 434.662 117.168Z" fill="#C6C6C6"/>
<path fill-rule="evenodd" clip-rule="evenodd" d="M465.585 134.783C464.152 134.152 462.545 134.668 461.997 135.936L442.331 181.406C441.783 182.674 442.501 184.213 443.935 184.843C445.368 185.474 446.975 184.958 447.523 183.69L467.188 138.22C467.737 136.952 467.019 135.413 465.585 134.783Z" fill="#C6C6C6"/>
<rect width="72.6257" height="45.97" transform="matrix(-0.910869 -0.412696 -0.409778 0.912185 497.248 109.441)" fill="#212121"/>
<ellipse cx="36.3129" cy="11.4925" rx="36.3129" ry="11.4925" transform="matrix(-0.910869 -0.412696 -0.409778 0.912185 501.958 98.9587)" fill="#4C4C4C"/>
<path fill-rule="evenodd" clip-rule="evenodd" d="M495.408 113.536L495.073 113.385C490.584 117.232 475.112 114.742 458.449 107.193C441.787 99.6435 429.689 89.6417 429.591 83.716L429.256 83.5641L419.485 105.315L419.225 105.893L419.278 105.917C417.879 111.662 430.399 122.397 448.031 130.385C465.663 138.374 481.962 140.697 485.324 135.841L485.378 135.865L485.629 135.305C485.632 135.299 485.634 135.293 485.637 135.288C485.64 135.282 485.642 135.276 485.645 135.27L495.408 113.536Z" fill="#4C4C4C"/>
<path fill-rule="evenodd" clip-rule="evenodd" d="M483.965 139.009L483.631 138.857C479.142 142.705 463.67 140.216 447.007 132.666C430.344 125.116 418.246 115.114 418.148 109.189L417.812 109.036L407.782 131.365L407.835 131.389C406.436 137.135 418.956 147.869 436.588 155.857C454.22 163.846 470.518 166.169 473.881 161.313L473.934 161.337L474.171 160.81C474.179 160.793 474.187 160.777 474.194 160.76C474.202 160.743 474.209 160.726 474.216 160.709L483.965 139.009Z" fill="#4C4C4C"/>
<ellipse cx="10.2421" cy="5.74625" rx="10.2421" ry="5.74625" transform="matrix(-0.910869 -0.412696 -0.409778 0.912185 476.192 92.6918)" fill="#212121"/>
<rect width="10.4981" height="33.3713" rx="5.24903" transform="matrix(0.983248 0.182272 -0.180772 0.983525 106.908 80.8099)" fill="#C6C6C6"/>
<rect width="10.5029" height="37.9243" rx="5.25146" transform="matrix(0.926169 -0.37711 0.374354 0.927286 99.6538 109.275)" fill="#C6C6C6"/>
<path d="M220.827 22.5974L166.277 73.6372L176.734 123.494L227.753 73.8212C229.727 71.8996 230.581 69.1017 230.016 66.4078L220.827 22.5974Z" fill="#4C4C4C"/>
<path d="M94.1499 49.3945L167.134 73.4559L177.591 123.312L108.503 99.0282C105.86 98.0991 103.895 95.8564 103.319 93.1122L94.1499 49.3945Z" fill="#999999"/>
<path d="M153.119 1.35707C151.486 0.920006 149.745 1.28322 148.423 2.33655L95.8293 44.2496C92.4462 46.9457 93.4947 52.3527 97.6406 53.5897L164.024 73.3965C165.783 73.9214 167.686 73.504 169.065 72.2909L219.622 27.7962C222.832 24.9705 221.596 19.6881 217.465 18.5822L153.119 1.35707Z" fill="#D9D9D9"/>
<ellipse cx="9.18618" cy="6.14809" rx="9.18618" ry="6.14809" transform="matrix(-0.978349 0.206959 0.205274 0.978705 161.269 2.8783)" fill="#212121"/>
<ellipse cx="30.6206" cy="19.7617" rx="30.6206" ry="19.7617" transform="matrix(-0.978349 0.206959 0.205274 0.978705 183.119 9.02893)" fill="#999999"/>
<ellipse cx="25.3713" cy="16.2485" rx="25.3713" ry="16.2485" transform="matrix(-0.978349 0.206959 0.205274 0.978705 178.344 11.8342)" fill="black"/>
<ellipse cx="25.3713" cy="16.2485" rx="25.3713" ry="16.2485" transform="matrix(-0.978349 0.206959 0.205274 0.978705 177.442 7.53625)" fill="#4C4C4C"/>
<ellipse cx="9.18618" cy="6.14809" rx="9.18618" ry="6.14809" transform="matrix(-0.978349 0.206959 0.205274 0.978705 208.934 17.0341)" fill="#212121"/>
<ellipse cx="9.18618" cy="6.14809" rx="9.18618" ry="6.14809" transform="matrix(-0.978349 0.206959 0.205274 0.978705 120.772 35.6837)" fill="#212121"/>
<ellipse cx="9.18618" cy="6.14809" rx="9.18618" ry="6.14809" transform="matrix(-0.978349 0.206959 0.205274 0.978705 171.906 53.5942)" fill="#212121"/>
<ellipse cx="5.68668" cy="5.26979" rx="5.68668" ry="5.26979" transform="matrix(-0.978349 0.206959 0.205274 0.978705 224.48 61.3253)" fill="black"/>
<ellipse cx="5.68668" cy="5.26979" rx="5.68668" ry="5.26979" transform="matrix(-0.978349 0.206959 0.205274 0.978705 190.155 93.7228)" fill="black"/>
<rect width="10.5108" height="33.331" rx="5.25541" transform="matrix(-0.82549 0.564417 0.561133 0.827726 222.269 62.6906)" fill="#C6C6C6"/>
<rect width="10.4966" height="37.9469" rx="5.24831" transform="matrix(-0.999545 0.0301458 0.0298897 0.999553 240.34 85.7979)" fill="#C6C6C6"/>
<rect width="10.5108" height="33.331" rx="5.25541" transform="matrix(-0.82549 0.564417 0.561133 0.827726 187.944 95.0883)" fill="#C6C6C6"/>
<rect width="10.4966" height="37.9469" rx="5.24831" transform="matrix(-0.999545 0.0301458 0.0298897 0.999553 206.016 118.196)" fill="#C6C6C6"/>
<rect width="4.65643" height="44.066" rx="2.32822" transform="matrix(-0.96547 -0.260514 -0.258447 0.966025 49.1963 222.056)" fill="#C6C6C6"/>
<rect width="4.65643" height="44.066" rx="2.32822" transform="matrix(-0.96547 -0.260514 -0.258447 0.966025 62.5391 233.955)" fill="#C6C6C6"/>
<rect width="4.65643" height="58.0871" rx="2.32822" transform="matrix(-0.96547 -0.260514 -0.258447 0.966025 81.3076 230.721)" fill="#C6C6C6"/>
<path d="M111.771 204.364L64.3512 204.016L52.7899 247.23L101.073 244.353L111.771 204.364Z" fill="#0072C0"/>
<path d="M72.1627 180.406L24.2806 180.706L64.0227 204.167L111.732 204.511L72.1627 180.406Z" fill="#40ABF4"/>
<path d="M61.4772 220.349L13.5951 220.65L52.4744 247.335L101.047 244.454L61.4772 220.349Z" fill="#0072C0"/>
<path d="M24.4277 180.796L64.3515 204.017L52.7902 247.23L13.7292 220.785L24.4277 180.796Z" fill="#008FF0"/>
<path d="M90.7127 172.403L57.3164 163.392L48.8805 184.628L88.0569 195.199L90.7127 172.403Z" fill="#0072C0"/>
<ellipse cx="17.2953" cy="5.00751" rx="17.2953" ry="5.00751" transform="matrix(-0.96547 -0.260514 -0.258447 0.966025 91.9214 167.888)" fill="#40ABF4"/>
<ellipse cx="20.2887" cy="5.67517" rx="20.2887" ry="5.67517" transform="matrix(-0.96547 -0.260514 -0.258447 0.966025 89.437 190.039)" fill="#0072C0"/>
<path opacity="0.4" d="M51.2553 211.783L47.6334 209.878L39.9273 238.682L43.3766 241.232L51.2553 211.783Z" fill="#212121"/>
<path opacity="0.4" d="M40.7389 204.763L37.1085 202.889L29.5665 231.08L33.0243 233.598L40.7389 204.763Z" fill="#212121"/>
<path opacity="0.4" d="M30.8481 197.979L27.2262 196.074L19.52 224.878L22.9694 227.428L30.8481 197.979Z" fill="#212121"/>
<path d="M273.581 194.421C272.291 195.1 270.694 194.602 270.014 193.309C269.334 192.016 269.827 190.417 271.117 189.738C272.406 189.059 274.003 189.557 274.684 190.851C275.364 192.144 274.87 193.742 273.581 194.421ZM319.921 282.503C318.631 283.182 317.035 282.684 316.354 281.391C315.674 280.097 316.168 278.499 317.458 277.82C318.747 277.141 320.344 277.64 321.024 278.933C321.704 280.226 321.21 281.825 319.921 282.503ZM169.64 249.154C168.35 249.832 166.754 249.335 166.073 248.041C165.393 246.748 165.886 245.149 167.176 244.47C168.466 243.791 170.062 244.289 170.743 245.582C171.423 246.875 170.929 248.474 169.64 249.154ZM215.98 337.235C214.691 337.914 213.094 337.417 212.414 336.123C211.733 334.83 212.227 333.231 213.516 332.552C214.806 331.873 216.403 332.371 217.083 333.664C217.764 334.957 217.27 336.556 215.98 337.235ZM306.288 166.104L163.06 241.523C160.675 242.779 159.761 245.737 161.021 248.13L209.716 340.688C210.975 343.08 213.929 344.002 216.314 342.745L359.542 267.326C361.928 266.07 362.841 263.112 361.582 260.72L312.886 168.161C311.628 165.769 308.674 164.848 306.288 166.104Z" fill="#87CC6F"/>
<path d="M272.427 192.18C271.137 192.859 269.54 192.36 268.86 191.067C268.18 189.774 268.673 188.175 269.963 187.497C271.252 186.817 272.849 187.315 273.53 188.608C274.21 189.901 273.716 191.5 272.427 192.18ZM318.767 280.262C317.477 280.941 315.881 280.443 315.201 279.149C314.52 277.856 315.014 276.258 316.304 275.579C317.593 274.899 319.19 275.397 319.87 276.69C320.55 277.984 320.057 279.582 318.767 280.262ZM168.486 246.911C167.196 247.59 165.6 247.093 164.919 245.8C164.239 244.507 164.733 242.907 166.022 242.228C167.312 241.549 168.908 242.047 169.589 243.34C170.269 244.634 169.775 246.233 168.486 246.911ZM214.826 334.993C213.537 335.672 211.94 335.174 211.26 333.881C210.579 332.588 211.073 330.989 212.363 330.31C213.652 329.632 215.249 330.129 215.929 331.423C216.61 332.716 216.116 334.315 214.826 334.993ZM305.134 163.862L161.906 239.281C159.522 240.537 158.608 243.495 159.867 245.887L208.562 338.446C209.821 340.839 212.775 341.759 215.161 340.503L358.388 265.084C360.774 263.828 361.687 260.87 360.428 258.478L311.732 165.92C310.474 163.527 307.52 162.605 305.134 163.862Z" fill="#69BF4B"/>
<path d="M334.119 193.656L297.993 212.679C297.419 212.981 296.708 212.759 296.405 212.183L282.166 185.119C281.863 184.543 282.083 183.83 282.657 183.528L318.783 164.505C319.357 164.203 320.069 164.425 320.372 165.001L334.611 192.066C334.914 192.641 334.693 193.354 334.119 193.656Z" fill="#DBDBDB"/>
<path d="M332.206 190.005L296.08 209.028C295.505 209.331 294.794 209.109 294.491 208.533L280.252 181.467C279.949 180.891 280.169 180.18 280.743 179.877L316.869 160.854C317.444 160.552 318.155 160.773 318.458 161.349L332.697 188.415C333 188.991 332.78 189.702 332.206 190.005Z" fill="#F2F2F2"/>
<path d="M349.911 223.299L319.969 239.065C319.49 239.318 318.897 239.132 318.644 238.651L306.689 215.929C306.436 215.448 306.619 214.854 307.099 214.601L337.041 198.834C337.52 198.583 338.113 198.767 338.366 199.248L350.321 221.972C350.574 222.452 350.39 223.046 349.911 223.299Z" fill="#DBDBDB"/>
<path d="M365.755 253.485L335.812 269.252C335.333 269.505 334.74 269.319 334.487 268.838L322.533 246.115C322.279 245.634 322.463 245.041 322.942 244.788L352.884 229.021C353.363 228.77 353.957 228.954 354.209 229.434L366.164 252.159C366.417 252.639 366.233 253.233 365.755 253.485Z" fill="#DBDBDB"/>
<path d="M348.221 220.105L318.279 235.871C317.8 236.124 317.207 235.938 316.954 235.458L304.999 212.735C304.746 212.254 304.929 211.66 305.408 211.408L335.35 195.641C335.83 195.389 336.423 195.574 336.675 196.054L348.631 218.778C348.884 219.258 348.7 219.852 348.221 220.105Z" fill="#F2F2F2"/>
<path d="M364.07 250.275L334.127 266.042C333.648 266.294 333.055 266.109 332.802 265.629L320.847 242.905C320.594 242.425 320.778 241.83 321.257 241.578L351.199 225.812C351.678 225.559 352.272 225.744 352.524 226.225L364.479 248.948C364.732 249.429 364.548 250.022 364.07 250.275Z" fill="#F2F2F2"/>
<path d="M253.204 266.311L229.361 278.866C228.648 279.241 227.764 278.967 227.389 278.251L214.807 254.338C214.431 253.622 214.704 252.738 215.417 252.362L239.261 239.807C239.974 239.432 240.857 239.707 241.233 240.423L253.814 264.336C254.191 265.051 253.918 265.935 253.204 266.311Z" fill="#DBDBDB"/>
<path d="M276.005 250.476L258.431 259.73C257.855 260.034 257.141 259.811 256.837 259.233L243.994 234.822C243.69 234.244 243.911 233.529 244.487 233.226L262.061 223.972C262.637 223.668 263.35 223.891 263.654 224.469L276.498 248.88C276.802 249.458 276.581 250.172 276.005 250.476Z" fill="#494949"/>
<path d="M286.955 222.197L278.258 226.777C277.706 227.067 277.022 226.854 276.731 226.301L272.142 217.578C271.851 217.024 272.062 216.34 272.614 216.05L281.31 211.47C281.863 211.179 282.546 211.392 282.838 211.946L287.427 220.668C287.718 221.222 287.507 221.906 286.955 222.197Z" fill="#494949"/>
<path d="M314.927 293.663L305.185 298.793C304.644 299.077 303.974 298.868 303.688 298.326L290.652 273.547C290.366 273.004 290.573 272.333 291.115 272.048L300.856 266.919C301.397 266.633 302.067 266.843 302.353 267.385L315.39 292.164C315.675 292.707 315.468 293.378 314.927 293.663Z" fill="#767676"/>
<path d="M312.644 289.31L302.903 294.44C302.361 294.724 301.691 294.516 301.406 293.973L288.37 269.194C288.084 268.651 288.291 267.98 288.833 267.695L298.574 262.566C299.115 262.281 299.785 262.489 300.071 263.033L313.107 287.812C313.393 288.354 313.185 289.025 312.644 289.31Z" fill="#494949"/>
<path d="M287.832 306.325L278.707 311.129C278.127 311.435 277.41 311.211 277.104 310.629L270.105 297.326C269.799 296.746 270.021 296.027 270.601 295.723L279.726 290.917C280.305 290.612 281.023 290.836 281.328 291.417L288.327 304.72C288.633 305.301 288.411 306.019 287.832 306.325Z" fill="#DBDBDB"/>
<path d="M263.403 319.209L254.278 324.014C253.698 324.319 252.981 324.095 252.675 323.514L245.676 310.211C245.37 309.63 245.592 308.912 246.172 308.607L255.297 303.802C255.876 303.497 256.594 303.72 256.899 304.301L263.899 317.605C264.204 318.186 263.983 318.904 263.403 319.209Z" fill="#DBDBDB"/>
<path d="M239.842 331.636L226.578 338.621C225.999 338.926 225.282 338.703 224.976 338.121L217.977 324.818C217.671 324.237 217.893 323.518 218.472 323.214L231.737 316.23C232.315 315.924 233.033 316.147 233.338 316.729L240.338 330.032C240.643 330.613 240.422 331.332 239.842 331.636Z" fill="#DBDBDB"/>
<path d="M286.156 303.125L277.031 307.93C276.451 308.235 275.734 308.011 275.428 307.43L268.429 294.127C268.123 293.546 268.345 292.827 268.925 292.522L278.05 287.717C278.629 287.412 279.347 287.635 279.652 288.217L286.652 301.52C286.957 302.101 286.736 302.819 286.156 303.125Z" fill="#F2F2F2"/>
<path d="M261.72 316.027L252.595 320.831C252.015 321.137 251.299 320.913 250.993 320.331L243.994 307.028C243.688 306.448 243.91 305.729 244.489 305.424L253.615 300.619C254.194 300.313 254.911 300.537 255.217 301.119L262.216 314.422C262.521 315.003 262.3 315.721 261.72 316.027Z" fill="#F2F2F2"/>
<path d="M238.168 328.436L224.904 335.421C224.324 335.726 223.607 335.502 223.301 334.921L216.303 321.618C215.997 321.036 216.219 320.319 216.798 320.013L230.062 313.029C230.641 312.724 231.359 312.948 231.664 313.529L238.664 326.832C238.969 327.413 238.748 328.131 238.168 328.436Z" fill="#F2F2F2"/>
<path d="M207.581 264.573L191.299 273.147C190.717 273.453 189.998 273.229 189.692 272.646L179.126 252.564C178.819 251.981 179.042 251.259 179.623 250.954L195.905 242.38C196.487 242.075 197.206 242.299 197.513 242.881L208.078 262.964C208.385 263.546 208.163 264.267 207.581 264.573Z" fill="#DBDBDB"/>
<path d="M252.073 264.154L228.229 276.71C227.516 277.085 226.633 276.81 226.257 276.095L213.676 252.181C213.299 251.466 213.573 250.581 214.286 250.205L238.129 237.651C238.842 237.275 239.726 237.551 240.101 238.266L252.683 262.179C253.059 262.895 252.786 263.778 252.073 264.154Z" fill="#F2F2F2"/>
<path d="M267.323 200.413L178.043 247.425C177.356 247.786 176.507 247.521 176.144 246.832L172.795 240.465C172.432 239.777 172.695 238.925 173.382 238.564L262.662 191.553C263.348 191.191 264.198 191.456 264.561 192.145L267.91 198.512C268.272 199.2 268.009 200.052 267.323 200.413Z" fill="#767676"/>
<path d="M206.648 262.78L190.366 271.353C189.784 271.66 189.065 271.435 188.758 270.852L178.193 250.77C177.886 250.187 178.108 249.467 178.69 249.16L194.972 240.587C195.554 240.281 196.273 240.505 196.58 241.088L207.145 261.17C207.452 261.753 207.229 262.474 206.648 262.78Z" fill="#F2F2F2"/>
<path d="M266.455 198.758L177.175 245.769C176.488 246.131 175.639 245.866 175.276 245.177L171.926 238.81C171.564 238.122 171.827 237.27 172.514 236.909L261.794 189.897C262.48 189.536 263.33 189.801 263.692 190.49L267.042 196.856C267.404 197.545 267.141 198.396 266.455 198.758Z" fill="#494949"/>
<path d="M202.807 307.64L199.831 309.207C199.356 309.458 198.768 309.274 198.517 308.797L178.675 271.084C178.425 270.607 178.607 270.018 179.082 269.768L182.057 268.2C182.532 267.95 183.121 268.134 183.372 268.611L203.214 306.324C203.464 306.8 203.282 307.39 202.807 307.64Z" fill="#494949"/>
<path d="M295.044 296.035L292.068 297.603C291.593 297.853 291.005 297.669 290.754 297.193L270.912 259.479C270.662 259.002 270.843 258.413 271.319 258.163L274.294 256.595C274.769 256.345 275.359 256.529 275.609 257.006L295.451 294.72C295.701 295.196 295.519 295.785 295.044 296.035Z" fill="#494949"/>
<path d="M201.022 286.797L223.56 293.541C225.003 293.973 226.557 293.823 227.888 293.122L270.461 270.708" stroke="#87CC6F" stroke-width="2.95866" stroke-miterlimit="10" stroke-linecap="round"/>
<path d="M204.291 293.026L224.096 299.2C225.556 299.656 227.136 299.512 228.487 298.8L272.925 275.404" stroke="#87CC6F" stroke-width="2.95866" stroke-miterlimit="10" stroke-linecap="round"/>
<path d="M213.059 300.704L224.449 304.256C225.909 304.711 227.489 304.567 228.841 303.855L275.074 279.512" stroke="#87CC6F" stroke-width="2.95866" stroke-miterlimit="10" stroke-linecap="round"/>
<path d="M208.265 300.405C207.859 299.631 208.156 298.673 208.928 298.265C209.701 297.857 210.656 298.154 211.062 298.928C211.469 299.702 211.172 300.66 210.399 301.068C209.627 301.476 208.672 301.179 208.265 300.405Z" stroke="#87CC6F" stroke-width="2.95866" stroke-miterlimit="10"/>
<path d="M342.87 236.388L350.817 233.086C351.158 232.945 351.551 233.087 351.724 233.415L352.484 234.86C352.657 235.188 352.551 235.594 352.241 235.794L345.022 240.479" stroke="#DBDBDB" stroke-width="4.42363" stroke-miterlimit="10" stroke-linecap="round"/>
<path d="M348.533 247.173L356.48 243.872C356.821 243.73 357.215 243.872 357.387 244.2L358.148 245.645C358.32 245.973 358.214 246.379 357.905 246.58L350.686 251.264" stroke="#DBDBDB" stroke-width="4.42363" stroke-miterlimit="10" stroke-linecap="round"/>
<path d="M281.869 297.789L283.374 301.411C283.439 301.566 283.374 301.745 283.226 301.824L282.571 302.168C282.422 302.247 282.238 302.199 282.147 302.058L280.015 298.765" stroke="#DBDBDB" stroke-width="2.01074" stroke-miterlimit="10" stroke-linecap="round"/>
<path d="M276.981 300.353L278.487 303.975C278.552 304.131 278.487 304.31 278.339 304.388L277.684 304.733C277.535 304.811 277.351 304.763 277.26 304.622L275.127 301.329" stroke="#DBDBDB" stroke-width="2.01074" stroke-miterlimit="10" stroke-linecap="round"/>
<path d="M257.396 310.701L258.901 314.324C258.966 314.479 258.902 314.658 258.753 314.736L258.098 315.081C257.949 315.16 257.766 315.111 257.674 314.97L255.542 311.677" stroke="#DBDBDB" stroke-width="2.01074" stroke-miterlimit="10" stroke-linecap="round"/>
<path d="M252.507 313.283L254.012 316.905C254.077 317.061 254.012 317.24 253.864 317.317L253.209 317.663C253.06 317.741 252.877 317.693 252.785 317.552L250.653 314.259" stroke="#DBDBDB" stroke-width="2.01074" stroke-miterlimit="10" stroke-linecap="round"/>
<path d="M327.053 206.234L335 202.932C335.341 202.79 335.735 202.932 335.907 203.26L336.668 204.706C336.84 205.033 336.735 205.439 336.425 205.64L329.205 210.325" stroke="#DBDBDB" stroke-width="4.42363" stroke-miterlimit="10" stroke-linecap="round"/>
<path d="M332.717 217.019L340.664 213.718C341.005 213.575 341.399 213.718 341.572 214.045L342.332 215.491C342.505 215.819 342.399 216.224 342.089 216.425L334.87 221.11" stroke="#DBDBDB" stroke-width="4.42363" stroke-miterlimit="10" stroke-linecap="round"/>
<path d="M174.108 238.509L175.221 237.921L175.806 239.036L174.693 239.624L174.108 238.509Z" fill="#DBDBDB"/>
<path d="M178.686 236.082L179.799 235.494L180.384 236.609L179.271 237.197L178.686 236.082Z" fill="#DBDBDB"/>
<path d="M183.259 233.673L184.372 233.085L184.957 234.2L183.844 234.788L183.259 233.673Z" fill="#DBDBDB"/>
<path d="M187.836 231.255L188.949 230.667L189.534 231.782L188.421 232.37L187.836 231.255Z" fill="#DBDBDB"/>
<path d="M192.408 228.863L193.521 228.275L194.106 229.39L192.993 229.978L192.408 228.863Z" fill="#DBDBDB"/>
<path d="M196.988 226.428L198.102 225.84L198.687 226.955L197.574 227.543L196.988 226.428Z" fill="#DBDBDB"/>
<path d="M201.565 224.011L202.678 223.423L203.263 224.538L202.15 225.126L201.565 224.011Z" fill="#DBDBDB"/>
<path d="M206.142 221.584L207.255 220.996L207.84 222.111L206.727 222.699L206.142 221.584Z" fill="#DBDBDB"/>
<path d="M210.716 219.183L211.83 218.596L212.415 219.711L211.302 220.299L210.716 219.183Z" fill="#DBDBDB"/>
<path d="M215.295 216.757L216.408 216.169L216.993 217.284L215.88 217.872L215.295 216.757Z" fill="#DBDBDB"/>
<path d="M219.866 214.357L220.979 213.769L221.564 214.884L220.451 215.472L219.866 214.357Z" fill="#DBDBDB"/>
<path d="M224.444 211.93L225.558 211.342L226.143 212.458L225.03 213.045L224.444 211.93Z" fill="#DBDBDB"/>
<path d="M229.019 209.503L230.132 208.915L230.717 210.03L229.604 210.618L229.019 209.503Z" fill="#DBDBDB"/>
<path d="M233.596 207.103L234.709 206.515L235.295 207.63L234.181 208.218L233.596 207.103Z" fill="#DBDBDB"/>
<path d="M238.169 204.702L239.282 204.114L239.867 205.229L238.754 205.817L238.169 204.702Z" fill="#DBDBDB"/>
<path d="M242.744 202.284L243.857 201.696L244.443 202.812L243.329 203.399L242.744 202.284Z" fill="#DBDBDB"/>
<path d="M247.321 199.867L248.434 199.279L249.019 200.394L247.906 200.982L247.321 199.867Z" fill="#DBDBDB"/>
<path d="M251.902 197.44L253.015 196.853L253.6 197.968L252.487 198.556L251.902 197.44Z" fill="#DBDBDB"/>
<path d="M256.473 195.04L257.586 194.452L258.172 195.567L257.058 196.155L256.473 195.04Z" fill="#DBDBDB"/>
<path d="M261.049 192.622L262.163 192.034L262.748 193.149L261.635 193.737L261.049 192.622Z" fill="#DBDBDB"/>
<path d="M176.221 242.505L177.334 241.917L177.92 243.033L176.806 243.62L176.221 242.505Z" fill="#DBDBDB"/>
<path d="M180.795 240.105L181.908 239.517L182.493 240.632L181.38 241.22L180.795 240.105Z" fill="#DBDBDB"/>
<path d="M185.37 237.696L186.483 237.108L187.068 238.223L185.955 238.811L185.37 237.696Z" fill="#DBDBDB"/>
<path d="M189.949 235.26L191.062 234.673L191.648 235.788L190.534 236.376L189.949 235.26Z" fill="#DBDBDB"/>
<path d="M194.523 232.86L195.636 232.272L196.221 233.387L195.108 233.975L194.523 232.86Z" fill="#DBDBDB"/>
<path d="M199.101 230.442L200.214 229.854L200.799 230.969L199.686 231.557L199.101 230.442Z" fill="#DBDBDB"/>
<path d="M203.672 228.032L204.785 227.445L205.37 228.56L204.257 229.148L203.672 228.032Z" fill="#DBDBDB"/>
<path d="M208.249 225.624L209.362 225.036L209.947 226.151L208.834 226.739L208.249 225.624Z" fill="#DBDBDB"/>
<path d="M212.824 223.197L213.938 222.609L214.523 223.724L213.409 224.312L212.824 223.197Z" fill="#DBDBDB"/>
<path d="M217.402 220.779L218.515 220.191L219.1 221.306L217.987 221.894L217.402 220.779Z" fill="#DBDBDB"/>
<path d="M221.978 218.361L223.091 217.773L223.676 218.889L222.563 219.476L221.978 218.361Z" fill="#DBDBDB"/>
<path d="M226.55 215.97L227.664 215.382L228.249 216.497L227.136 217.085L226.55 215.97Z" fill="#DBDBDB"/>
<path d="M231.129 213.544L232.242 212.956L232.827 214.071L231.714 214.659L231.129 213.544Z" fill="#DBDBDB"/>
<path d="M235.706 211.126L236.819 210.538L237.404 211.653L236.291 212.241L235.706 211.126Z" fill="#DBDBDB"/>
<path d="M240.279 208.716L241.392 208.128L241.977 209.243L240.864 209.831L240.279 208.716Z" fill="#DBDBDB"/>
<path d="M244.858 206.298L245.971 205.71L246.556 206.825L245.443 207.413L244.858 206.298Z" fill="#DBDBDB"/>
<path d="M249.434 203.872L250.547 203.284L251.132 204.399L250.019 204.987L249.434 203.872Z" fill="#DBDBDB"/>
<path d="M254.006 201.471L255.119 200.884L255.704 201.999L254.591 202.587L254.006 201.471Z" fill="#DBDBDB"/>
<path d="M258.583 199.044L259.696 198.456L260.281 199.572L259.168 200.159L258.583 199.044Z" fill="#DBDBDB"/>
<path d="M263.162 196.618L264.275 196.031L264.86 197.146L263.747 197.734L263.162 196.618Z" fill="#DBDBDB"/>
<path d="M201.475 241.749L261.816 209.977C263.167 209.265 264.747 209.121 266.208 209.576L273.784 211.939" stroke="#87CC6F" stroke-width="2.95866" stroke-miterlimit="10" stroke-linecap="round"/>
<ellipse cx="5.33562" cy="4.01758" rx="5.33562" ry="4.01758" transform="matrix(0.981405 0.191947 -0.190374 0.981712 267.399 184.384)" fill="#69BF4B"/>
<ellipse cx="5.33562" cy="4.01758" rx="5.33562" ry="4.01758" transform="matrix(0.981405 0.191947 -0.190374 0.981712 311.521 272.159)" fill="#69BF4B"/>
<ellipse cx="5.33562" cy="4.01758" rx="5.33562" ry="4.01758" transform="matrix(0.981405 0.191947 -0.190374 0.981712 207.171 326.801)" fill="#69BF4B"/>
<ellipse cx="5.33562" cy="4.01758" rx="5.33562" ry="4.01758" transform="matrix(0.981405 0.191947 -0.190374 0.981712 163.049 239.026)" fill="#69BF4B"/>
<path fill-rule="evenodd" clip-rule="evenodd" d="M335.637 30.678C337.293 30.9045 338.89 31.4562 340.334 32.3017C341.779 33.1472 343.044 34.2698 344.056 35.6055C345.069 36.9411 345.809 38.4636 346.235 40.0859C346.661 41.7081 346.765 43.3984 346.539 45.06L341.994 78.7946L342.862 78.9132C344.485 79.1349 345.623 80.6332 345.403 82.2597L345.383 82.4131C345.163 84.0397 343.67 85.1786 342.048 84.9569L336.789 84.2385C337.233 82.5703 337.65 80.865 338.036 79.1279C343.365 55.1769 340.882 34.2473 332.491 32.3804C329.388 31.6902 325.913 33.7021 322.495 37.7229C322.63 37.4438 322.776 37.1693 322.932 36.9001C323.772 35.4509 324.889 34.1824 326.218 33.1669C327.547 32.1514 329.063 31.4089 330.679 30.9818C332.296 30.5548 333.98 30.4515 335.637 30.678Z" fill="#FA716F"/>
</g>
<defs>
<clipPath id="clip0_3599_34125">
<rect width="570" height="380" fill="white"/>
</clipPath>
</defs>
</svg>
