<svg width="570" height="380" viewBox="0 0 570 380" fill="none" xmlns="http://www.w3.org/2000/svg">
<g clip-path="url(#clip0_3601_34482)">
<path fill-rule="evenodd" clip-rule="evenodd" d="M199.949 108.528L342.574 106.152C350.761 106.059 357.431 110.476 357.47 116.022C357.51 121.566 350.904 126.137 342.717 126.23L193.045 128.724C126.638 129.48 73.0622 166.548 73.3828 211.518C73.7034 256.488 127.799 292.33 194.206 291.574L413.279 289.08C421.466 288.987 428.136 293.407 428.175 298.95C428.215 304.496 421.609 309.065 413.422 309.158L194.35 311.652C127.942 312.408 74.3664 349.477 74.687 394.448C75.0076 439.418 129.103 475.261 195.511 474.504L414.583 472.01C422.77 471.917 429.44 476.337 429.48 481.881L534.898 480.68C534.577 435.711 480.483 399.868 414.074 400.624L195.002 403.119C186.815 403.212 180.145 398.792 180.106 393.248C180.066 387.703 186.672 383.134 194.859 383.04L413.931 380.546C480.34 379.79 533.914 342.722 533.594 297.75C533.273 252.78 479.179 216.938 412.77 217.694L193.698 220.188C185.511 220.281 178.841 215.862 178.801 210.318C178.762 204.774 185.368 200.203 193.554 200.11L320.092 197.616C386.501 196.86 440.076 159.792 439.755 114.822C439.434 69.8509 385.34 34.0081 318.931 34.7642L199.949 37.1094V108.528Z" fill="#C8CBE6"/>
<circle cx="201.6" cy="72.7497" r="35.6837" fill="#C8CBE6"/>
<rect x="429.393" y="165.995" width="139.602" height="58.0993" rx="11.3441" transform="rotate(12.1383 429.393 165.995)" fill="#FFE2C4"/>
<rect x="277.815" y="82.0779" width="178.38" height="65.1672" rx="11.3441" transform="rotate(-3.94142 277.815 82.0779)" fill="#00C8B5"/>
<rect x="19.0215" y="160.901" width="122.4" height="78.5041" rx="11.3441" transform="rotate(-12.6493 19.0215 160.901)" fill="#BAFABD"/>
<rect x="167.727" y="36.3354" width="73.9079" height="46.9265" rx="11.3441" transform="rotate(-4.92501 167.727 36.3354)" fill="#A573BF"/>
<rect x="176.617" y="248.865" width="206.716" height="105.927" rx="11.3441" transform="rotate(-8.54363 176.617 248.865)" fill="#64B5FF"/>
<rect x="267.815" y="74.0779" width="178.38" height="65.1672" rx="11.3441" transform="rotate(-3.94142 267.815 74.0779)" fill="#0E857A"/>
<g clip-path="url(#clip1_3601_34482)">
<path fill-rule="evenodd" clip-rule="evenodd" d="M298.838 90.7868C299.056 92.5353 297.808 94.0516 296.051 94.1736L284.218 94.9948C282.46 95.1168 280.858 93.7982 280.64 92.0497V92.0497C280.422 90.3012 281.67 88.7849 283.427 88.6629L295.26 87.8418C297.018 87.7198 298.62 89.0383 298.838 90.7868V90.7868Z" fill="#FFF6BF"/>
<path fill-rule="evenodd" clip-rule="evenodd" d="M394.704 84.4103C394.918 86.1594 393.665 87.672 391.907 87.7888L308.416 93.3351C306.658 93.4519 305.06 92.1287 304.847 90.3795V90.3795C304.633 88.6304 305.886 87.1178 307.644 87.001L391.135 81.4547C392.893 81.3379 394.491 82.6612 394.704 84.4103V84.4103Z" fill="white"/>
<path fill-rule="evenodd" clip-rule="evenodd" d="M326.826 102.581C326.943 104.339 325.612 105.859 323.853 105.975L293.268 107.998C291.51 108.114 289.99 106.783 289.874 105.025V105.025C289.757 103.267 291.088 101.747 292.847 101.631L323.432 99.6079C325.191 99.4916 326.71 100.823 326.826 102.581V102.581Z" fill="#FFF6BF"/>
<path fill-rule="evenodd" clip-rule="evenodd" d="M436.683 95.2398C436.8 96.998 435.469 98.5177 433.71 98.634L335.881 105.105C334.122 105.221 332.603 103.89 332.486 102.132V102.132C332.37 100.374 333.701 98.8541 335.459 98.7378L433.289 92.2668C435.047 92.1505 436.567 93.4816 436.683 95.2398V95.2398Z" fill="white"/>
<path fill-rule="evenodd" clip-rule="evenodd" d="M324.024 116.464C324.14 118.222 322.809 119.742 321.051 119.858L285.704 122.196C283.946 122.312 282.426 120.981 282.31 119.223V119.223C282.194 117.465 283.525 115.945 285.283 115.829L320.63 113.491C322.388 113.374 323.908 114.706 324.024 116.464V116.464Z" fill="#FFF6BF"/>
<path fill-rule="evenodd" clip-rule="evenodd" d="M437.609 108.868C437.725 110.626 436.394 112.146 434.636 112.262L333.078 118.98C331.32 119.096 329.8 117.765 329.684 116.007V116.007C329.567 114.248 330.898 112.729 332.657 112.612L434.215 105.895C435.973 105.778 437.493 107.11 437.609 108.868V108.868Z" fill="white"/>
</g>
<g clip-path="url(#clip2_3601_34482)">
<rect x="9.02148" y="152.901" width="122.4" height="78.5041" rx="11.3441" transform="rotate(-12.6493 9.02148 152.901)" fill="#358539"/>
<g clip-path="url(#clip3_3601_34482)">
<path fill-rule="evenodd" clip-rule="evenodd" d="M42.2023 164.724C42.6829 166.419 41.6788 168.107 39.9597 168.493L28.3882 171.097C26.6691 171.483 24.8859 170.422 24.4053 168.727V168.727C23.9247 167.032 24.9288 165.344 26.6479 164.957L38.2194 162.354C39.9385 161.968 41.7217 163.028 42.2023 164.724V164.724Z" fill="#FFF6BF"/>
<path fill-rule="evenodd" clip-rule="evenodd" d="M121.561 147.11C122.037 148.807 121.028 150.492 119.307 150.873L51.8897 165.83C50.1694 166.211 48.3894 165.145 47.9138 163.449V163.449C47.4383 161.752 48.4473 160.067 50.1675 159.685L117.585 144.729C119.305 144.347 121.085 145.413 121.561 147.11V147.11Z" fill="white"/>
<path fill-rule="evenodd" clip-rule="evenodd" d="M65.3611 173.517C65.7422 175.237 64.6566 176.941 62.9362 177.322L39.297 182.559C37.5766 182.94 35.873 181.855 35.4919 180.134V180.134C35.1107 178.414 36.1964 176.71 37.9167 176.329L61.556 171.092C63.2763 170.711 64.9799 171.796 65.3611 173.517V173.517Z" fill="#FFF6BF"/>
<path fill-rule="evenodd" clip-rule="evenodd" d="M124.517 160.346C124.898 162.066 123.812 163.77 122.092 164.151L74.6954 174.652C72.9751 175.033 71.2715 173.947 70.8903 172.227V172.227C70.5092 170.507 71.5948 168.803 73.3152 168.422L120.712 157.921C122.432 157.54 124.136 158.626 124.517 160.346V160.346Z" fill="white"/>
<path fill-rule="evenodd" clip-rule="evenodd" d="M59.9606 188.609C60.3417 190.329 59.2561 192.033 57.5357 192.414L42.255 195.799C40.5346 196.181 38.831 195.095 38.4499 193.375V193.375C38.0687 191.654 39.1544 189.951 40.8747 189.57L56.1555 186.184C57.8758 185.803 59.5794 186.889 59.9606 188.609V188.609Z" fill="#FFF6BF"/>
<path fill-rule="evenodd" clip-rule="evenodd" d="M127.479 173.601C127.86 175.321 126.774 177.025 125.054 177.406L69.2989 189.759C67.5786 190.14 65.875 189.054 65.4938 187.334V187.334C65.1127 185.613 66.1983 183.91 67.9187 183.529L123.674 171.176C125.394 170.795 127.098 171.88 127.479 173.601V173.601Z" fill="white"/>
<path fill-rule="evenodd" clip-rule="evenodd" d="M64.891 201.443C65.2721 203.163 64.1865 204.867 62.4661 205.248L36.9122 210.909C35.1919 211.29 33.4883 210.205 33.1071 208.484V208.484C32.726 206.764 33.8116 205.06 35.532 204.679L61.0859 199.018C62.8062 198.637 64.5098 199.722 64.891 201.443V201.443Z" fill="#FFF6BF"/>
<path fill-rule="evenodd" clip-rule="evenodd" d="M130.439 186.852C130.82 188.573 129.734 190.276 128.014 190.657L74.2252 202.574C72.5049 202.956 70.8013 201.87 70.4201 200.15V200.15C70.039 198.429 71.1246 196.726 72.845 196.344L126.634 184.427C128.354 184.046 130.057 185.132 130.439 186.852V186.852Z" fill="white"/>
</g>
</g>
<rect x="157.727" y="28.3354" width="73.9079" height="46.9265" rx="11.3441" transform="rotate(-4.92501 157.727 28.3354)" fill="#6C3688"/>
<g clip-path="url(#clip4_3601_34482)">
<path fill-rule="evenodd" clip-rule="evenodd" d="M188.852 43.4592C189.017 44.6222 188.203 45.6472 187.033 45.7486L173.097 46.9564C171.927 47.0578 170.844 46.1973 170.678 45.0343V45.0343C170.513 43.8713 171.327 42.8463 172.497 42.7449L186.433 41.5371C187.603 41.4356 188.686 42.2962 188.852 43.4592V43.4592Z" fill="#FFF6BF"/>
<path fill-rule="evenodd" clip-rule="evenodd" d="M221.595 40.7148C221.757 41.8783 220.94 42.9009 219.769 42.9989L194.211 45.138C193.04 45.2359 191.96 44.3722 191.797 43.2087V43.2087C191.635 42.0452 192.453 41.0226 193.624 40.9247L219.182 38.7856C220.353 38.6876 221.433 39.5513 221.595 40.7148V40.7148Z" fill="white"/>
<path fill-rule="evenodd" clip-rule="evenodd" d="M194.81 54.4038C194.907 55.5745 194.038 56.6026 192.867 56.7003L182.3 57.5817C181.129 57.6793 180.101 56.8095 180.003 55.6388V55.6388C179.906 54.4682 180.776 53.44 181.946 53.3424L192.513 52.461C193.684 52.3633 194.712 53.2332 194.81 54.4038V54.4038Z" fill="#FFF6BF"/>
<path fill-rule="evenodd" clip-rule="evenodd" d="M222.561 52.0582C222.658 53.2289 221.789 54.257 220.618 54.3547L199.933 56.08C198.763 56.1776 197.734 55.3078 197.637 54.1371V54.1371C197.539 52.9665 198.409 51.9383 199.58 51.8407L220.264 50.1154C221.435 50.0177 222.463 50.8876 222.561 52.0582V52.0582Z" fill="white"/>
</g>
<g clip-path="url(#clip5_3601_34482)">
<rect x="166.617" y="240.865" width="206.716" height="105.927" rx="11.3441" transform="rotate(-8.54363 166.617 240.865)" fill="#0072C0"/>
<g clip-path="url(#clip6_3601_34482)">
<path fill-rule="evenodd" clip-rule="evenodd" d="M249.109 251.6C249.451 253.924 247.845 256.086 245.521 256.429L187.787 264.94C185.463 265.283 183.301 263.677 182.958 261.352V261.352C182.616 259.028 184.222 256.866 186.546 256.523L244.28 248.012C246.604 247.669 248.766 249.276 249.109 251.6V251.6Z" fill="#FFF6BF"/>
<path fill-rule="evenodd" clip-rule="evenodd" d="M361.547 234.896C361.89 237.22 360.283 239.382 357.959 239.725L259.538 254.235C257.214 254.577 255.051 252.971 254.709 250.647V250.647C254.366 248.322 255.973 246.16 258.297 245.818L356.718 231.308C359.042 230.965 361.204 232.572 361.547 234.896V234.896Z" fill="white"/>
<path fill-rule="evenodd" clip-rule="evenodd" d="M230.976 274.515C231.318 276.839 229.712 279.001 227.388 279.344L199.167 283.505C196.843 283.847 194.681 282.241 194.338 279.916V279.916C193.996 277.592 195.602 275.43 197.926 275.087L226.147 270.927C228.471 270.584 230.633 272.191 230.976 274.515V274.515Z" fill="#FFF6BF"/>
<path fill-rule="evenodd" clip-rule="evenodd" d="M364.51 254.753C364.853 257.078 363.246 259.24 360.922 259.582L241.42 277.2C239.095 277.543 236.933 275.936 236.591 273.612V273.612C236.248 271.288 237.854 269.126 240.179 268.783L359.681 251.165C362.005 250.822 364.167 252.429 364.51 254.753V254.753Z" fill="white"/>
<path fill-rule="evenodd" clip-rule="evenodd" d="M224.168 295.813C224.511 298.137 222.905 300.299 220.58 300.642L202.13 303.362C199.805 303.705 197.643 302.098 197.301 299.774V299.774C196.958 297.449 198.564 295.287 200.889 294.945L219.339 292.225C221.664 291.882 223.826 293.488 224.168 295.813V295.813Z" fill="#FFF6BF"/>
<path fill-rule="evenodd" clip-rule="evenodd" d="M336.623 279.176C336.966 281.5 335.36 283.662 333.035 284.005L234.614 298.515C232.29 298.857 230.128 297.251 229.785 294.927V294.927C229.443 292.602 231.049 290.44 233.374 290.098L331.795 275.588C334.119 275.245 336.281 276.852 336.623 279.176V279.176Z" fill="white"/>
<path fill-rule="evenodd" clip-rule="evenodd" d="M224.899 315.977C225.241 318.301 223.635 320.463 221.311 320.806L196.673 324.438C194.348 324.781 192.186 323.174 191.844 320.85V320.85C191.501 318.526 193.107 316.364 195.432 316.021L220.07 312.389C222.394 312.046 224.556 313.652 224.899 315.977V315.977Z" fill="#FFF6BF"/>
<path fill-rule="evenodd" clip-rule="evenodd" d="M351.411 297.256C351.754 299.581 350.148 301.743 347.823 302.085L235.343 318.668C233.019 319.011 230.857 317.404 230.514 315.08V315.08C230.172 312.756 231.778 310.594 234.103 310.251L346.582 293.668C348.907 293.326 351.069 294.932 351.411 297.256V297.256Z" fill="white"/>
</g>
</g>
<g clip-path="url(#clip7_3601_34482)">
<rect x="418.393" y="154.995" width="139.602" height="58.0993" rx="11.3441" transform="rotate(12.1383 418.393 154.995)" fill="#D37511"/>
<g clip-path="url(#clip8_3601_34482)">
<path fill-rule="evenodd" clip-rule="evenodd" d="M445.489 183.246C445.085 185.102 443.252 186.278 441.397 185.874L430.311 183.458C428.456 183.053 427.279 181.221 427.684 179.366V179.366C428.088 177.51 429.92 176.334 431.776 176.738L442.861 179.154C444.717 179.559 445.893 181.391 445.489 183.246V183.246Z" fill="#FFF6BF"/>
<path fill-rule="evenodd" clip-rule="evenodd" d="M536.342 203.005C535.938 204.861 534.106 206.037 532.25 205.633L453.679 188.508C451.823 188.104 450.647 186.272 451.051 184.416V184.416C451.456 182.561 453.288 181.384 455.143 181.789L533.715 198.913C535.57 199.318 536.747 201.15 536.342 203.005V203.005Z" fill="white"/>
<path fill-rule="evenodd" clip-rule="evenodd" d="M453.949 199.541C453.545 201.397 451.713 202.573 449.857 202.169L427.328 197.258C425.473 196.854 424.296 195.022 424.701 193.166V193.166C425.105 191.311 426.937 190.134 428.793 190.539L451.322 195.449C453.177 195.853 454.354 197.686 453.949 199.541V199.541Z" fill="#FFF6BF"/>
<path fill-rule="evenodd" clip-rule="evenodd" d="M528.769 215.785C528.365 217.64 526.533 218.817 524.677 218.412L462.143 204.783C460.288 204.378 459.111 202.546 459.516 200.691V200.691C459.92 198.835 461.752 197.659 463.608 198.063L526.142 211.693C527.997 212.097 529.173 213.929 528.769 215.785V215.785Z" fill="white"/>
</g>
</g>
</g>
<defs>
<clipPath id="clip0_3601_34482">
<rect width="570" height="380" fill="white"/>
</clipPath>
<clipPath id="clip1_3601_34482">
<rect width="155.649" height="42.3235" fill="white" transform="translate(279.955 84.6124) rotate(-3.88411)"/>
</clipPath>
<clipPath id="clip2_3601_34482">
<rect x="9.02148" y="152.901" width="122.4" height="78.5041" rx="11.3441" transform="rotate(-12.6493 9.02148 152.901)" fill="white"/>
</clipPath>
<clipPath id="clip3_3601_34482">
<rect width="99.7115" height="55.7163" fill="white" transform="translate(22.6016 161.479) rotate(-12.5919)"/>
</clipPath>
<clipPath id="clip4_3601_34482">
<rect width="51.2198" height="24.1872" fill="white" transform="translate(170.015 38.6626) rotate(-4.8677)"/>
</clipPath>
<clipPath id="clip5_3601_34482">
<rect x="166.617" y="240.865" width="206.716" height="105.927" rx="11.3441" transform="rotate(-8.54363 166.617 240.865)" fill="white"/>
</clipPath>
<clipPath id="clip6_3601_34482">
<rect width="180.545" height="77.3862" fill="white" transform="translate(181.703 252.938) rotate(-8.48631)"/>
</clipPath>
<clipPath id="clip7_3601_34482">
<rect x="418.393" y="154.995" width="139.602" height="58.0993" rx="11.3441" transform="rotate(12.1383 418.393 154.995)" fill="white"/>
</clipPath>
<clipPath id="clip8_3601_34482">
<rect width="111.212" height="29.6279" fill="white" transform="translate(429.303 171.845) rotate(12.1956)"/>
</clipPath>
</defs>
</svg>
