<svg width="570" height="380" viewBox="0 0 570 380" fill="none" xmlns="http://www.w3.org/2000/svg">
<g clip-path="url(#clip0_3599_33967)">
<path d="M234.987 415.722L1.02474 411.711C-11.8507 406.635 -10.6616 388.014 2.75519 384.612L107.613 331.876C119.622 328.831 122.302 312.954 111.957 306.135L67.0761 276.552C55.1488 268.689 60.9141 250.1 75.1936 250.376L116.052 251.167C126.801 251.374 133.903 240.041 129.035 230.444L27.1153 29.4679C19.7604 14.9658 38.5036 1.41284 49.9416 12.9655L206.693 171.286C213.345 178.006 224.569 176.496 229.219 168.258L270.985 94.2496C277.614 82.5032 295.318 85.6749 297.457 98.9925L304.851 145.016C306.524 155.433 318.526 160.485 327.136 154.395L522.386 16.3014C535.362 7.12257 551.335 22.8744 542.362 36.0021L395.129 251.416C388.384 261.284 396.027 274.577 407.936 273.693L485.685 267.911C499.579 266.878 506.537 284.364 495.743 293.184L444.819 334.8C434.552 343.191 440.281 359.838 453.531 360.109L564.502 386.036C579.36 386.341 583.88 406.36 570.601 413.041L328.661 414.228C326.726 415.202 324.594 415.722 322.43 415.748L240.375 416.713C238.532 416.734 236.703 416.398 234.987 415.722Z" fill="#FFE3C4"/>
<path d="M6.50054 181.438C6.24237 177.414 8.12604 175.27 12.1516 175.004L18.1899 174.605C21.209 174.405 22.8154 175.814 24.4218 177.223L26.8313 179.337C28.4377 180.746 30.0441 182.155 33.0633 181.955L45.1398 181.157C48.159 180.958 49.5717 179.349 50.9845 177.741L53.1036 175.328C54.5164 173.72 55.9291 172.111 58.9483 171.912L161.599 165.13C165.625 164.864 167.767 166.743 168.025 170.766L170.445 208.483C170.703 212.506 168.82 214.651 164.794 214.917L62.1431 221.699C59.124 221.898 57.7112 223.507 56.2985 225.115L54.1793 227.528C52.7666 229.136 51.3538 230.745 48.3347 230.944L36.2581 231.742C33.239 231.942 31.6326 230.533 30.0262 229.124L27.6166 227.01C26.0102 225.601 24.4039 224.192 21.3847 224.392L15.3464 224.791C13.745 224.897 12.1683 224.362 10.9633 223.305C9.75826 222.248 9.02359 220.755 8.92088 219.155L6.50054 181.438Z" fill="#F3524F"/>
<rect opacity="0.3" width="95.2671" height="10.6638" rx="5.33188" transform="matrix(0.997872 -0.065129 0.0627724 0.998033 16.5635 195.841)" fill="#212121"/>
<path d="M144.119 176.895L136.566 177.397C128.224 177.95 121.896 185.151 122.433 193.479C122.97 201.807 130.169 208.109 138.511 207.555L146.064 207.054C154.406 206.5 160.734 199.3 160.197 190.972C159.66 182.644 152.462 176.342 144.119 176.895Z" fill="white"/>
<path d="M388.021 71.3993C388.361 67.3785 390.541 65.5429 394.561 65.8927L400.591 66.4174C403.607 66.6797 404.987 68.3187 406.367 69.9577L408.437 72.4162C409.817 74.0552 411.197 75.6942 414.212 75.9565L426.273 77.0059C429.288 77.2682 430.923 75.8915 432.558 74.5149L435.011 72.4499C436.646 71.0732 438.281 69.6966 441.296 69.9589L543.812 78.8784C547.832 79.2281 549.672 81.4135 549.332 85.4343L546.145 123.13C545.805 127.151 543.625 128.986 539.604 128.636L437.089 119.717C434.074 119.455 432.438 120.831 430.803 122.208L428.351 124.273C426.716 125.65 425.081 127.026 422.065 126.764L410.005 125.715C406.99 125.452 405.609 123.813 404.229 122.174L402.159 119.716C400.779 118.077 399.399 116.438 396.384 116.176L390.354 115.651C388.754 115.512 387.274 114.743 386.239 113.513C385.204 112.284 384.698 110.694 384.833 109.095L388.021 71.3993Z" fill="#008FF0"/>
<rect opacity="0.3" width="95.2742" height="10.7077" rx="5.35385" transform="matrix(0.996302 0.0858033 -0.0822722 0.99662 395.846 87.2434)" fill="#212121"/>
<path d="M524.791 87.9311L517.246 87.2716C508.913 86.5431 501.583 92.6948 500.875 101.012C500.167 109.329 506.35 116.662 514.683 117.39L522.228 118.05C530.562 118.778 537.892 112.626 538.599 104.309C539.307 95.9924 533.125 88.6596 524.791 87.9311Z" fill="white"/>
<path d="M352.438 155.288C354.111 151.529 356.773 150.505 360.426 152.218L365.905 154.786C368.644 156.071 369.386 158.123 370.129 160.175L371.242 163.253C371.985 165.305 372.727 167.357 375.467 168.641L386.424 173.778C389.163 175.063 391.16 174.295 393.157 173.527L396.152 172.376C398.149 171.608 400.146 170.84 402.885 172.125L565.874 248.542C569.527 250.254 570.517 252.99 568.844 256.75L553.164 291.997C551.492 295.756 548.829 296.78 545.177 295.068L382.188 218.65C379.448 217.366 377.452 218.134 375.455 218.901L372.459 220.053C370.463 220.821 368.466 221.588 365.726 220.304L354.769 215.167C352.03 213.883 351.287 211.83 350.545 209.778L349.431 206.7C348.689 204.648 347.946 202.596 345.207 201.312L339.728 198.743C338.275 198.062 337.146 196.815 336.589 195.275C336.032 193.736 336.093 192.031 336.759 190.535L352.438 155.288Z" fill="#A573BF"/>
<rect opacity="0.3" width="86.1829" height="10.876" rx="5.43802" transform="matrix(0.903952 0.427391 -0.40218 0.915758 354.795 172.665)" fill="#212121"/>
<rect opacity="0.3" width="80.1378" height="10.8687" rx="5.43434" transform="matrix(0.904077 0.427119 -0.402584 0.915576 484.301 234.769)" fill="#212121"/>
<path d="M465.696 213.801L458.785 210.625C451.15 207.115 442.142 210.476 438.665 218.13C435.188 225.784 438.558 234.834 446.192 238.343L453.104 241.52C460.739 245.029 469.747 241.669 473.224 234.014C476.701 226.36 473.331 217.311 465.696 213.801Z" fill="white"/>
<path d="M180.902 238.564C180.446 234.578 182.221 232.351 186.226 231.881L192.234 231.177C195.239 230.825 196.912 232.143 198.585 233.462L201.095 235.44C202.768 236.759 204.442 238.077 207.446 237.725L219.462 236.317C222.467 235.965 223.797 234.294 225.128 232.623L227.125 230.117C228.456 228.446 229.787 226.775 232.791 226.423L334.933 214.45C338.938 213.98 341.169 215.739 341.626 219.725L345.905 257.093C346.361 261.079 344.587 263.307 340.581 263.777L253.46 273.989C250.456 274.341 249.125 276.012 247.794 277.683L245.797 280.189C244.467 281.86 243.136 283.531 240.131 283.883L228.115 285.291C225.111 285.644 223.437 284.325 221.764 283.006L219.254 281.028C217.581 279.71 215.908 278.391 212.904 278.743L206.895 279.447C205.302 279.634 203.846 280.443 202.847 281.697C201.849 282.95 201.39 284.545 201.571 286.131L202.256 292.11C202.438 293.695 203.245 295.142 204.5 296.131C205.755 297.12 207.356 297.571 208.949 297.384L342.635 281.714C344.228 281.527 345.829 281.978 347.084 282.967C348.339 283.956 349.146 285.403 349.328 286.988L351.553 306.42C352.009 310.406 350.235 312.634 346.229 313.104L244.087 325.077C241.083 325.429 239.752 327.1 238.421 328.77L236.425 331.277C235.094 332.947 233.763 334.618 230.759 334.97L218.742 336.379C215.738 336.731 214.065 335.412 212.391 334.094L209.882 332.116C208.208 330.797 206.535 329.478 203.531 329.831L197.523 330.535C195.929 330.722 194.329 330.271 193.073 329.282C191.818 328.292 191.011 326.846 190.83 325.26L180.902 238.564Z" fill="#FE8E15"/>
<path d="M303.031 228.8L317.991 227.042L334.754 240.235L321.598 256.945L306.639 258.703L289.876 245.51L303.031 228.8Z" fill="white"/>
<rect opacity="0.3" x="191.62" y="252.076" width="92.2193" height="10.5825" rx="5.29127" transform="rotate(-6.50176 191.62 252.076)" fill="#212121"/>
<path d="M135.478 84.1055L134.973 81.0921C147.842 67.3626 163.584 58.6217 180.618 55.748C197.651 52.8743 215.376 55.969 232.011 64.7211L273.812 57.669C277.793 56.9973 280.12 58.6705 280.793 62.6885L286.094 94.3301C286.767 98.348 285.113 100.693 281.132 101.364L194.545 115.972C191.559 116.476 190.319 118.235 189.078 119.993L187.218 122.631C185.977 124.39 184.737 126.148 181.751 126.652L169.808 128.667C166.822 129.171 165.077 127.916 163.331 126.661L160.713 124.779C158.968 123.524 157.223 122.269 154.237 122.773L148.265 123.78C146.682 124.047 145.056 123.669 143.747 122.727C142.438 121.786 141.552 120.359 141.284 118.761L135.478 84.1055Z" fill="#FFBF00"/>
<path d="M212.755 81.9506C212.334 81.8242 211.865 82.0052 211.624 82.3464C209.951 84.233 207.234 84.7044 205.026 83.4913C202.477 82.0382 199.208 82.2064 196.805 83.9202L196.738 83.5328C196.638 82.9516 196.086 82.6483 195.601 82.7325C195.116 82.8167 194.698 83.2883 194.798 83.8695L197.937 102.08C198.02 102.565 198.589 102.965 199.074 102.881L199.171 102.864C199.656 102.78 200.058 102.211 199.974 101.727L198.906 95.5273C199.759 94.6809 200.743 94.0113 201.988 93.6956C203.152 93.4935 204.383 93.6789 205.487 94.2855C208.685 96.0251 212.664 95.3347 214.997 92.6353C215.254 92.3911 215.301 92.0837 215.234 91.6962L213.698 82.7845C213.615 82.3002 213.257 81.9632 212.755 81.9506ZM214.167 91.8814C212.092 94.3366 208.599 94.9427 205.839 93.4264C204.621 92.7398 203.179 92.4912 201.724 92.7438C200.576 93.0427 199.576 93.6154 198.608 94.3818L196.989 84.9858C199.181 83.2087 202.142 82.9942 204.561 84.2704C207.207 85.7068 210.409 85.1511 212.42 82.9066L212.614 82.8729L212.728 82.9529L214.167 91.8814Z" fill="#4CBF56"/>
<path d="M212.743 83.0152L214.159 91.8665L214.176 91.9636C212.083 94.3226 208.59 94.9234 205.832 93.3991C204.616 92.7089 203.174 92.4572 201.719 92.7075C200.571 93.0049 199.571 93.5769 198.603 94.343L196.99 84.9258C199.183 83.1494 202.143 82.9399 204.56 84.2231C207.205 85.6671 210.406 85.1163 212.419 82.8711L212.613 82.8377C212.629 82.9348 212.726 82.9181 212.743 83.0152Z" fill="#4CBF56"/>
<rect opacity="0.3" x="146.762" y="95.9379" width="39.3066" height="10.5825" rx="5.29127" transform="rotate(-9.90842 146.762 95.9379)" fill="#212121"/>
<rect opacity="0.3" x="221.233" y="82.9148" width="54.4245" height="10.5825" rx="5.29127" transform="rotate(-9.90842 221.233 82.9148)" fill="#212121"/>
</g>
<defs>
<clipPath id="clip0_3599_33967">
<rect width="570" height="380" fill="white"/>
</clipPath>
</defs>
</svg>
