<svg width="570" height="380" viewBox="0 0 570 380" fill="none" xmlns="http://www.w3.org/2000/svg">
<g clip-path="url(#clip0_3599_34008)">
<ellipse cx="478.364" cy="234.33" rx="35.1961" ry="35.6007" fill="#E1D0EA"/>
<path d="M385.278 182.743C385.278 221.729 353.378 253.333 314.028 253.333C274.678 253.333 242.778 221.729 242.778 182.743C242.778 143.757 274.678 112.153 314.028 112.153C353.378 112.153 385.278 143.757 385.278 182.743Z" fill="#E1D0EA"/>
<ellipse cx="113.338" cy="216.749" rx="61.7727" ry="61.2331" fill="#E1D0EA"/>
<ellipse cx="185.652" cy="74.3827" rx="31.3452" ry="31.0714" fill="#E1D0EA"/>
<ellipse cx="284.5" cy="547" rx="351.5" ry="273" fill="#E1D0EA"/>
<path d="M289.791 178.665L260.719 352.158L176.021 289.456L289.791 178.665Z" fill="#F3524F"/>
<path d="M289.792 178.666L343.762 313.087L260.72 352.159L289.792 178.666Z" fill="#F67D7B"/>
<path d="M297.448 102.256L336.571 69.0785L351.77 117.753L297.448 102.256Z" fill="#FFE540"/>
<path d="M351.771 117.753L336.5 69.5002L383.5 72L351.771 117.753Z" fill="#FFFBE5"/>
<path d="M296.5 46.0002L336.5 69.5L297.448 102.256L296.5 46.0002Z" fill="#877500"/>
<path d="M349.5 27L336.5 69.4999L296.5 46.0002L349.5 27Z" fill="#FFDC00"/>
<path d="M383.5 72L336.5 69.5L349.5 27.0001L383.5 72Z" fill="#FFF6BF"/>
<path d="M411 167L432 191.5L423.5 236L402.309 211.757L411 167Z" fill="#40ABF4"/>
<path d="M512 186.5L483.787 201.386L475.5 246L503.88 231.423L512 186.5Z" fill="#40ABF4"/>
<path d="M432 191.5L411 167L439.475 152.535L490.973 162.293L512 186.5L484 201.5L432 191.5Z" fill="#80C7F7"/>
<path d="M432 191.5L484 201.5L475.5 246L423.5 236L432 191.5Z" fill="#0072C0"/>
<path d="M131.072 42.1051L178 38.5L142.5 67.9999L96.5 69.5L131.072 42.1051Z" fill="#74C378"/>
<path d="M96.5004 69.4999L142.5 68L163 121L116.381 122.9L96.5004 69.4999Z" fill="#46AF4B"/>
<path d="M178 38.5001L142.5 68L163 121L198.435 91.644L178 38.5001Z" fill="#A2D7A5"/>
<path d="M120.007 188.733L5.50684 200.733L72.5068 293.233L120.007 188.733Z" fill="#FFC78A"/>
<path d="M120.007 188.733L127.215 255.117L72.5069 293.233L120.007 188.733Z" fill="#FE8E15"/>
<path d="M5.50674 200.733L11.886 266.939L72.5068 293.233L5.50674 200.733Z" fill="#FE8E15"/>
<path d="M120.007 188.733L58.616 161.296L5.50683 200.733L120.007 188.733Z" fill="#FEAA50"/>
</g>
<defs>
<clipPath id="clip0_3599_34008">
<rect width="570" height="380" fill="white"/>
</clipPath>
</defs>
</svg>
